<svg width="30" height="30" viewBox="0 0 30 30" fill="none" xmlns="http://www.w3.org/2000/svg">
<rect width="30" height="30" rx="4" fill="#0094FF"/>
<path d="M15.0004 18.4167C14.2268 18.4167 13.4849 18.1095 12.938 17.5625C12.391 17.0155 12.0837 16.2736 12.0837 15.5001C12.0837 14.7265 12.391 13.9847 12.938 13.4377C13.4849 12.8907 14.2268 12.5834 15.0004 12.5834C15.7739 12.5834 16.5158 12.8907 17.0627 13.4377C17.6097 13.9847 17.917 14.7265 17.917 15.5001C17.917 16.2736 17.6097 17.0155 17.0627 17.5625C16.5158 18.1095 15.7739 18.4167 15.0004 18.4167ZM21.192 16.3084C21.2254 16.0417 21.2504 15.7751 21.2504 15.5001C21.2504 15.2251 21.2254 14.9501 21.192 14.6667L22.9504 13.3084C23.1087 13.1834 23.1504 12.9584 23.0504 12.7751L21.3837 9.89175C21.2837 9.70842 21.0587 9.63342 20.8754 9.70842L18.8004 10.5417C18.367 10.2167 17.917 9.93342 17.392 9.72508L17.0837 7.51675C17.0668 7.4186 17.0156 7.32961 16.9394 7.26554C16.8631 7.20148 16.7666 7.16648 16.667 7.16675H13.3337C13.1254 7.16675 12.9504 7.31675 12.917 7.51675L12.6087 9.72508C12.0837 9.93342 11.6337 10.2167 11.2004 10.5417L9.12535 9.70842C8.94202 9.63342 8.71702 9.70842 8.61702 9.89175L6.95035 12.7751C6.84202 12.9584 6.89202 13.1834 7.05035 13.3084L8.80869 14.6667C8.77535 14.9501 8.75035 15.2251 8.75035 15.5001C8.75035 15.7751 8.77535 16.0417 8.80869 16.3084L7.05035 17.6917C6.89202 17.8167 6.84202 18.0417 6.95035 18.2251L8.61702 21.1084C8.71702 21.2917 8.94202 21.3584 9.12535 21.2917L11.2004 20.4501C11.6337 20.7834 12.0837 21.0667 12.6087 21.2751L12.917 23.4834C12.9504 23.6834 13.1254 23.8334 13.3337 23.8334H16.667C16.8754 23.8334 17.0504 23.6834 17.0837 23.4834L17.392 21.2751C17.917 21.0584 18.367 20.7834 18.8004 20.4501L20.8754 21.2917C21.0587 21.3584 21.2837 21.2917 21.3837 21.1084L23.0504 18.2251C23.1504 18.0417 23.1087 17.8167 22.9504 17.6917L21.192 16.3084Z" fill="#B6E0FF"/>
</svg>
