<svg width="30" height="30" viewBox="0 0 30 30" fill="none" xmlns="http://www.w3.org/2000/svg">
<rect width="30" height="30" rx="4" fill="#00D770"/>
<path d="M14.9993 12.75C14.27 12.75 13.5705 13.0397 13.0548 13.5555C12.5391 14.0712 12.2493 14.7707 12.2493 15.5C12.2493 16.2293 12.5391 16.9288 13.0548 17.4445C13.5705 17.9603 14.27 18.25 14.9993 18.25C15.7287 18.25 16.4282 17.9603 16.9439 17.4445C17.4596 16.9288 17.7493 16.2293 17.7493 15.5C17.7493 14.7707 17.4596 14.0712 16.9439 13.5555C16.4282 13.0397 15.7287 12.75 14.9993 12.75ZM14.9993 20.0833C13.7838 20.0833 12.618 19.6004 11.7584 18.7409C10.8989 17.8814 10.416 16.7156 10.416 15.5C10.416 14.2844 10.8989 13.1186 11.7584 12.2591C12.618 11.3996 13.7838 10.9167 14.9993 10.9167C16.2149 10.9167 17.3807 11.3996 18.2403 12.2591C19.0998 13.1186 19.5827 14.2844 19.5827 15.5C19.5827 16.7156 19.0998 17.8814 18.2403 18.7409C17.3807 19.6004 16.2149 20.0833 14.9993 20.0833ZM14.9993 8.625C10.416 8.625 6.50185 11.4758 4.91602 15.5C6.50185 19.5242 10.416 22.375 14.9993 22.375C19.5827 22.375 23.4968 19.5242 25.0827 15.5C23.4968 11.4758 19.5827 8.625 14.9993 8.625Z" fill="#AAFFD6"/>
</svg>
