<svg width="30" height="30" viewBox="0 0 30 30" fill="none" xmlns="http://www.w3.org/2000/svg">
<rect width="30" height="30" rx="4" fill="#FF5C00"/>
<g clip-path="url(#clip0_210_374)">
<path d="M11.9004 5.94875C11.9385 5.81916 12.0175 5.7054 12.1257 5.6245C12.2338 5.5436 12.3653 5.49992 12.5004 5.5H17.5004C17.5993 5.50008 17.6969 5.52366 17.785 5.56881C17.8731 5.61395 17.9492 5.67938 18.007 5.75969C18.0649 5.84 18.1028 5.9329 18.1177 6.03075C18.1327 6.1286 18.1241 6.22859 18.0929 6.3225L15.8679 13H20.6254C20.7424 12.9999 20.8571 13.0327 20.9564 13.0946C21.0558 13.1565 21.1357 13.2451 21.1872 13.3502C21.2386 13.4554 21.2595 13.5728 21.2475 13.6892C21.2355 13.8057 21.191 13.9164 21.1191 14.0087L12.3691 25.2587C12.2795 25.3746 12.152 25.4552 12.009 25.4866C11.866 25.5181 11.7164 25.4983 11.5865 25.4307C11.4566 25.3631 11.3545 25.2521 11.2981 25.1169C11.2417 24.9818 11.2345 24.8311 11.2779 24.6912L13.5291 17.375H9.37537C9.2782 17.3751 9.18235 17.3525 9.09545 17.309C9.00854 17.2655 8.93296 17.2024 8.87472 17.1246C8.81648 17.0468 8.77717 16.9566 8.75992 16.8609C8.74268 16.7653 8.74796 16.667 8.77537 16.5737L11.9004 5.94875Z" fill="#FFF0E8"/>
</g>
<defs>
<clipPath id="clip0_210_374">
<rect width="20" height="20" fill="white" transform="translate(5 5.5)"/>
</clipPath>
</defs>
</svg>
