<?xml version="1.0" encoding="UTF-8"?>
<svg xmlns="http://www.w3.org/2000/svg" style="display:none">
    <symbol id="card-active" width="21" height="21" viewBox="0 0 21 21" fill="none">
        <path d="M3.6543 2.47314C2.48069 2.47314 1.5293 3.74167 1.5293 5.30648V6.72314H18.5293V5.30648C18.5293 3.74167 17.5779 2.47314 16.4043 2.47314H3.6543Z" fill="#18254E"/>
        <path fill-rule="evenodd" clip-rule="evenodd" d="M18.5293 9.55648H1.5293V16.6398C1.5293 18.2046 2.48069 19.4731 3.6543 19.4731H16.4043C17.5779 19.4731 18.5293 18.2046 18.5293 16.6398V9.55648ZM3.6543 15.2231C3.6543 14.4407 4.12999 13.8065 4.7168 13.8065H5.7793C6.3661 13.8065 6.8418 14.4407 6.8418 15.2231C6.8418 16.0055 6.3661 16.6398 5.7793 16.6398H4.7168C4.12999 16.6398 3.6543 16.0055 3.6543 15.2231ZM8.9668 13.8065C8.37999 13.8065 7.9043 14.4407 7.9043 15.2231C7.9043 16.0055 8.37999 16.6398 8.9668 16.6398H10.0293C10.6161 16.6398 11.0918 16.0055 11.0918 15.2231C11.0918 14.4407 10.6161 13.8065 10.0293 13.8065H8.9668Z" fill="#18254E"/>
        <rect x="3.10938" y="13.6367" width="9.65039" height="3.75464" fill="url(#paint0_linear_2766_1182)"/>
        <rect x="1.5293" y="6.69531" width="16.998" height="2.8623" fill="url(#paint1_linear_2766_1182)"/>
        <defs>
            <linearGradient id="paint0_linear_2766_1182" x1="7.93457" y1="13.6367" x2="7.93457" y2="17.3914" gradientUnits="userSpaceOnUse">
                <stop stop-color="#278DFF"/>
                <stop offset="1" stop-color="#66CDFF"/>
            </linearGradient>
            <linearGradient id="paint1_linear_2766_1182" x1="10.0283" y1="6.69531" x2="10.0283" y2="9.55762" gradientUnits="userSpaceOnUse">
                <stop stop-color="#278DFF"/>
                <stop offset="1" stop-color="#66CDFF"/>
            </linearGradient>
        </defs>
    </symbol>
    <symbol id="card-passive" width="21" height="20" viewBox="0 0 21 20" fill="none" >
        <path d="M3.6543 1.5C2.48069 1.5 1.5293 2.76853 1.5293 4.33333V5.75H18.5293V4.33333C18.5293 2.76853 17.5779 1.5 16.4043 1.5H3.6543Z" fill="#969EA7"/>
        <path fill-rule="evenodd" clip-rule="evenodd" d="M18.5293 8.58333H1.5293V15.6667C1.5293 17.2315 2.48069 18.5 3.6543 18.5H16.4043C17.5779 18.5 18.5293 17.2315 18.5293 15.6667V8.58333ZM3.6543 14.25C3.6543 13.4676 4.12999 12.8333 4.7168 12.8333H5.7793C6.3661 12.8333 6.8418 13.4676 6.8418 14.25C6.8418 15.0324 6.3661 15.6667 5.7793 15.6667H4.7168C4.12999 15.6667 3.6543 15.0324 3.6543 14.25ZM8.9668 12.8333C8.37999 12.8333 7.9043 13.4676 7.9043 14.25C7.9043 15.0324 8.37999 15.6667 8.9668 15.6667H10.0293C10.6161 15.6667 11.0918 15.0324 11.0918 14.25C11.0918 13.4676 10.6161 12.8333 10.0293 12.8333H8.9668Z" fill="#969EA7"/>
        <rect x="3.10938" y="12.6641" width="9.65039" height="3.75464" fill="#FEF9F6"/>
        <rect x="1.5293" y="5.72217" width="16.998" height="2.8623" fill="#FEF9F6"/>
    </symbol>
    <symbol id="chat-active" width="21" height="21" viewBox="0 0 21 21" fill="none" >
        <rect x="5.2832" y="6.27637" width="9.93295" height="9.72076" fill="url(#paint0_linear_2766_1188)"/>
        <path d="M10.0586 2.47363C12.6988 2.47363 14.0192 2.47294 15.0605 2.9043C16.449 3.47946 17.5518 4.58317 18.127 5.97168C18.5582 7.01306 18.5586 8.33335 18.5586 10.9736C18.5586 13.614 18.5583 14.9342 18.127 15.9756C17.5519 17.364 16.4488 18.4668 15.0605 19.042C14.0192 19.4734 12.6988 19.4736 10.0586 19.4736H7.22559C4.55432 19.4736 3.21853 19.4735 2.38867 18.6436C1.55888 17.8137 1.55859 16.478 1.55859 13.8066V10.9736C1.55859 8.3333 1.55894 7.01307 1.99023 5.97168C2.56536 4.58313 3.66816 3.47945 5.05664 2.9043C6.09799 2.47295 7.41831 2.47363 10.0586 2.47363ZM7.22461 11.8613C6.67264 11.8613 6.22512 12.3095 6.22461 12.8613C6.22461 13.4136 6.67232 13.8613 7.22461 13.8613H10.0576C10.6099 13.8613 11.0576 13.4136 11.0576 12.8613C11.0571 12.3095 10.6096 11.8613 10.0576 11.8613H7.22461ZM7.22461 8.08301C6.67263 8.08301 6.22511 8.53115 6.22461 9.08301C6.22461 9.63529 6.67232 10.083 7.22461 10.083H12.8916C13.4437 10.0828 13.8916 9.63517 13.8916 9.08301C13.8911 8.53128 13.4434 8.08321 12.8916 8.08301H7.22461Z" fill="#18254E"/>
        <defs>
            <linearGradient id="paint0_linear_2766_1188" x1="10.2497" y1="6.27637" x2="10.2497" y2="15.9971" gradientUnits="userSpaceOnUse">
                <stop stop-color="#2B91FF"/>
                <stop offset="1" stop-color="#5EC4FF"/>
            </linearGradient>
        </defs>
    </symbol>
    <symbol id="chat-passive" width="21" height="20" viewBox="0 0 21 20" fill="none" >
        <rect x="5.2832" y="5.30322" width="9.93295" height="9.72076" fill="#FEF9F6"/>
        <path d="M10.0586 1.50049C12.6988 1.50049 14.0192 1.49979 15.0605 1.93115C16.449 2.50632 17.5518 3.61002 18.127 4.99854C18.5582 6.03992 18.5586 7.36021 18.5586 10.0005C18.5586 12.6408 18.5583 13.9611 18.127 15.0024C17.5519 16.3908 16.4488 17.4937 15.0605 18.0688C14.0192 18.5002 12.6988 18.5005 10.0586 18.5005H7.22559C4.55432 18.5005 3.21853 18.5003 2.38867 17.6704C1.55888 16.8405 1.55859 15.5048 1.55859 12.8335V10.0005C1.55859 7.36016 1.55894 6.03993 1.99023 4.99854C2.56536 3.60999 3.66816 2.50631 5.05664 1.93115C6.09799 1.4998 7.41831 1.50049 10.0586 1.50049ZM7.22461 10.8882C6.67264 10.8882 6.22512 11.3363 6.22461 11.8882C6.22461 12.4405 6.67232 12.8882 7.22461 12.8882H10.0576C10.6099 12.8882 11.0576 12.4405 11.0576 11.8882C11.0571 11.3363 10.6096 10.8882 10.0576 10.8882H7.22461ZM7.22461 7.10986C6.67263 7.10986 6.22511 7.558 6.22461 8.10986C6.22461 8.66215 6.67232 9.10986 7.22461 9.10986H12.8916C13.4437 9.10966 13.8916 8.66202 13.8916 8.10986C13.8911 7.55813 13.4434 7.11007 12.8916 7.10986H7.22461Z" fill="#969EA7"/>
    </symbol>
    <symbol id="events-active" width="20" height="21" viewBox="0 0 20 21" fill="none">
        <g clip-path="url(#clip0_2766_1196)">
            <rect x="1.69141" y="8.89062" width="16.6094" height="2.62598" fill="url(#paint0_linear_2766_1196)"/>
            <path d="M1.66602 8.47298C1.66602 7.22683 1.66602 6.60375 1.93396 6.13965C2.1095 5.83561 2.36198 5.58313 2.66602 5.4076C3.13012 5.13965 3.75319 5.13965 4.99935 5.13965H14.9993C16.2455 5.13965 16.8686 5.13965 17.3327 5.4076C17.6367 5.58313 17.8892 5.83561 18.0647 6.13965C18.3327 6.60375 18.3327 7.22683 18.3327 8.47298C18.3327 8.78452 18.3327 8.94029 18.2657 9.05632C18.2218 9.13232 18.1587 9.19544 18.0827 9.23933C17.9667 9.30632 17.8109 9.30632 17.4993 9.30632H2.49935C2.18781 9.30632 2.03204 9.30632 1.91602 9.23933C1.84001 9.19544 1.77689 9.13232 1.733 9.05632C1.66602 8.94029 1.66602 8.78452 1.66602 8.47298Z" fill="#18254E"/>
            <path d="M17.334 10.9731C17.8052 10.9731 18.041 10.9733 18.1875 11.1196C18.3339 11.2661 18.334 11.5017 18.334 11.9731V15.3062C18.334 17.1918 18.3338 18.1344 17.748 18.7202C17.1623 19.306 16.2196 19.3062 14.334 19.3062H5.66797C3.78235 19.3062 2.83969 19.306 2.25391 18.7202C1.66812 18.1344 1.66797 17.1918 1.66797 15.3062V11.9731C1.66797 11.5017 1.66801 11.2661 1.81445 11.1196C1.96091 10.9733 2.19674 10.9731 2.66797 10.9731H17.334ZM6.66797 15.9731C6.35643 15.9731 6.20001 15.9735 6.08398 16.0405C6.00817 16.0844 5.94517 16.1473 5.90137 16.2231C5.8344 16.3391 5.83398 16.4948 5.83398 16.8062C5.83398 17.1177 5.83438 17.2741 5.90137 17.3901C5.94519 17.4659 6.00819 17.5289 6.08398 17.5728C6.20001 17.6397 6.35643 17.6401 6.66797 17.6401H8.33398C8.64552 17.6401 8.80194 17.6397 8.91797 17.5728C8.99376 17.5289 9.05676 17.4659 9.10059 17.3901C9.16757 17.2741 9.16797 17.1177 9.16797 16.8062C9.16797 16.4948 9.16755 16.3391 9.10059 16.2231C9.05678 16.1473 8.99378 16.0844 8.91797 16.0405C8.80194 15.9735 8.64552 15.9731 8.33398 15.9731H6.66797ZM11.668 15.9731C11.3564 15.9731 11.2 15.9735 11.084 16.0405C11.0082 16.0844 10.9452 16.1473 10.9014 16.2231C10.8344 16.3391 10.834 16.4948 10.834 16.8062C10.834 17.1177 10.8344 17.2741 10.9014 17.3901C10.9452 17.4659 11.0082 17.5289 11.084 17.5728C11.2 17.6397 11.3564 17.6401 11.668 17.6401H13.334C13.6455 17.6401 13.8019 17.6397 13.918 17.5728C13.9938 17.5289 14.0568 17.4659 14.1006 17.3901C14.1676 17.2741 14.168 17.1177 14.168 16.8062C14.168 16.4948 14.1676 16.3391 14.1006 16.2231C14.0568 16.1473 13.9938 16.0844 13.918 16.0405C13.8019 15.9735 13.6455 15.9731 13.334 15.9731H11.668ZM6.66797 12.6401C6.35643 12.6401 6.20001 12.6396 6.08398 12.7065C6.00803 12.7504 5.94523 12.8142 5.90137 12.8901C5.8345 13.0061 5.83398 13.1618 5.83398 13.4731C5.83398 13.7845 5.8345 13.9401 5.90137 14.0562C5.94523 14.1321 6.00803 14.1959 6.08398 14.2397C6.20001 14.3067 6.35643 14.3062 6.66797 14.3062H8.33398C8.64552 14.3062 8.80194 14.3067 8.91797 14.2397C8.99392 14.1959 9.05673 14.1321 9.10059 14.0562C9.16745 13.9401 9.16797 13.7845 9.16797 13.4731C9.16797 13.1618 9.16745 13.0061 9.10059 12.8901C9.05673 12.8142 8.99392 12.7504 8.91797 12.7065C8.80194 12.6396 8.64552 12.6401 8.33398 12.6401H6.66797ZM11.668 12.6401C11.3564 12.6401 11.2 12.6396 11.084 12.7065C11.008 12.7504 10.9452 12.8142 10.9014 12.8901C10.8345 13.0061 10.834 13.1618 10.834 13.4731C10.834 13.7845 10.8345 13.9401 10.9014 14.0562C10.9452 14.1321 11.008 14.1959 11.084 14.2397C11.2 14.3067 11.3564 14.3062 11.668 14.3062H13.334C13.6455 14.3062 13.8019 14.3067 13.918 14.2397C13.9939 14.1959 14.0567 14.1321 14.1006 14.0562C14.1674 13.9401 14.168 13.7845 14.168 13.4731C14.168 13.1618 14.1674 13.0061 14.1006 12.8901C14.0567 12.8142 13.9939 12.7504 13.918 12.7065C13.8019 12.6396 13.6455 12.6401 13.334 12.6401H11.668Z" fill="#18254E"/>
            <path d="M5.83398 3.47314L5.83398 5.97314" stroke="#18254E" stroke-width="2" stroke-linecap="round"/>
            <path d="M14.166 3.47314L14.166 5.97314" stroke="#18254E" stroke-width="2" stroke-linecap="round"/>
            <rect x="5.56641" y="12.4878" width="3.82031" height="2" rx="1" fill="url(#paint1_linear_2766_1196)"/>
            <rect x="10.6133" y="12.4878" width="3.82031" height="2" rx="1" fill="url(#paint2_linear_2766_1196)"/>
            <rect x="5.56641" y="15.8359" width="3.82031" height="2" rx="1" fill="url(#paint3_linear_2766_1196)"/>
            <rect x="10.6133" y="15.8359" width="3.82031" height="2" rx="1" fill="url(#paint4_linear_2766_1196)"/>
        </g>
        <defs>
            <linearGradient id="paint0_linear_2766_1196" x1="9.99609" y1="8.89062" x2="9.99609" y2="11.5166" gradientUnits="userSpaceOnUse">
                <stop stop-color="#2A90FF"/>
                <stop offset="1" stop-color="#64CBFF"/>
            </linearGradient>
            <linearGradient id="paint1_linear_2766_1196" x1="7.47656" y1="12.4878" x2="7.47656" y2="14.4878" gradientUnits="userSpaceOnUse">
                <stop stop-color="#2A90FF"/>
                <stop offset="1" stop-color="#62C9FF"/>
            </linearGradient>
            <linearGradient id="paint2_linear_2766_1196" x1="12.5234" y1="12.4878" x2="12.5234" y2="14.4878" gradientUnits="userSpaceOnUse">
                <stop stop-color="#2A90FF"/>
                <stop offset="1" stop-color="#62C9FF"/>
            </linearGradient>
            <linearGradient id="paint3_linear_2766_1196" x1="7.47656" y1="15.8359" x2="7.47656" y2="17.8359" gradientUnits="userSpaceOnUse">
                <stop stop-color="#2A90FF"/>
                <stop offset="1" stop-color="#62C9FF"/>
            </linearGradient>
            <linearGradient id="paint4_linear_2766_1196" x1="12.5234" y1="15.8359" x2="12.5234" y2="17.8359" gradientUnits="userSpaceOnUse">
                <stop stop-color="#2A90FF"/>
                <stop offset="1" stop-color="#62C9FF"/>
            </linearGradient>
            <clipPath id="clip0_2766_1196">
                <rect width="20" height="20" fill="white" transform="translate(0 0.973145)"/>
            </clipPath>
        </defs>
    </symbol>
    <symbol id="events-passive" width="20" height="20" viewBox="0 0 20 20" fill="none">
        <g clip-path="url(#clip0_2766_1148)">
            <rect x="1.69141" y="7.91748" width="16.6094" height="2.62598" fill="#D9D9D9"/>
            <path d="M1.66602 7.49984C1.66602 6.25368 1.66602 5.63061 1.93396 5.1665C2.1095 4.86247 2.36198 4.60999 2.66602 4.43445C3.13012 4.1665 3.75319 4.1665 4.99935 4.1665H14.9993C16.2455 4.1665 16.8686 4.1665 17.3327 4.43445C17.6367 4.60999 17.8892 4.86247 18.0647 5.1665C18.3327 5.63061 18.3327 6.25368 18.3327 7.49984V7.49984C18.3327 7.81138 18.3327 7.96715 18.2657 8.08317C18.2218 8.15918 18.1587 8.2223 18.0827 8.26618C17.9667 8.33317 17.8109 8.33317 17.4993 8.33317H2.49935C2.18781 8.33317 2.03204 8.33317 1.91602 8.26618C1.84001 8.2223 1.77689 8.15918 1.733 8.08317C1.66602 7.96715 1.66602 7.81138 1.66602 7.49984V7.49984Z" fill="#969EA7"/>
            <path d="M17.334 10C17.8052 10 18.041 10.0002 18.1875 10.1465C18.3339 10.2929 18.334 10.5286 18.334 11V14.333C18.334 16.2186 18.3338 17.1613 17.748 17.7471C17.1623 18.3329 16.2196 18.333 14.334 18.333H5.66797C3.78235 18.333 2.83969 18.3329 2.25391 17.7471C1.66812 17.1613 1.66797 16.2186 1.66797 14.333V11C1.66797 10.5286 1.66801 10.2929 1.81445 10.1465C1.96091 10.0002 2.19674 10 2.66797 10H17.334ZM6.66797 15C6.35643 15 6.20001 15.0004 6.08398 15.0674C6.00817 15.1113 5.94517 15.1741 5.90137 15.25C5.8344 15.366 5.83398 15.5217 5.83398 15.833C5.83398 16.1445 5.83438 16.301 5.90137 16.417C5.94519 16.4928 6.00819 16.5558 6.08398 16.5996C6.20001 16.6666 6.35643 16.667 6.66797 16.667H8.33398C8.64552 16.667 8.80194 16.6666 8.91797 16.5996C8.99376 16.5558 9.05676 16.4928 9.10059 16.417C9.16757 16.301 9.16797 16.1445 9.16797 15.833C9.16797 15.5217 9.16755 15.366 9.10059 15.25C9.05678 15.1741 8.99378 15.1113 8.91797 15.0674C8.80194 15.0004 8.64552 15 8.33398 15H6.66797ZM11.668 15C11.3564 15 11.2 15.0004 11.084 15.0674C11.0082 15.1113 10.9452 15.1741 10.9014 15.25C10.8344 15.366 10.834 15.5217 10.834 15.833C10.834 16.1445 10.8344 16.301 10.9014 16.417C10.9452 16.4928 11.0082 16.5558 11.084 16.5996C11.2 16.6666 11.3564 16.667 11.668 16.667H13.334C13.6455 16.667 13.8019 16.6666 13.918 16.5996C13.9938 16.5558 14.0568 16.4928 14.1006 16.417C14.1676 16.301 14.168 16.1445 14.168 15.833C14.168 15.5217 14.1675 15.366 14.1006 15.25C14.0568 15.1741 13.9938 15.1113 13.918 15.0674C13.8019 15.0004 13.6455 15 13.334 15H11.668ZM6.66797 11.667C6.35643 11.667 6.20001 11.6664 6.08398 11.7334C6.00803 11.7773 5.94523 11.841 5.90137 11.917C5.8345 12.033 5.83398 12.1887 5.83398 12.5C5.83398 12.8113 5.8345 12.967 5.90137 13.083C5.94523 13.159 6.00803 13.2227 6.08398 13.2666C6.20001 13.3336 6.35643 13.333 6.66797 13.333H8.33398C8.64552 13.333 8.80194 13.3336 8.91797 13.2666C8.99392 13.2227 9.05673 13.159 9.10059 13.083C9.16745 12.967 9.16797 12.8113 9.16797 12.5C9.16797 12.1887 9.16745 12.033 9.10059 11.917C9.05673 11.841 8.99392 11.7773 8.91797 11.7334C8.80194 11.6664 8.64552 11.667 8.33398 11.667H6.66797ZM11.668 11.667C11.3564 11.667 11.2 11.6664 11.084 11.7334C11.008 11.7773 10.9452 11.841 10.9014 11.917C10.8345 12.033 10.834 12.1887 10.834 12.5C10.834 12.8113 10.8345 12.967 10.9014 13.083C10.9452 13.159 11.008 13.2227 11.084 13.2666C11.2 13.3336 11.3564 13.333 11.668 13.333H13.334C13.6455 13.333 13.8019 13.3336 13.918 13.2666C13.9939 13.2227 14.0567 13.159 14.1006 13.083C14.1675 12.967 14.168 12.8113 14.168 12.5C14.168 12.1887 14.1674 12.033 14.1006 11.917C14.0567 11.841 13.9939 11.7773 13.918 11.7334C13.8019 11.6664 13.6455 11.667 13.334 11.667H11.668Z" fill="#969EA7"/>
            <path d="M5.83398 2.5L5.83398 5" stroke="#969EA7" stroke-width="2" stroke-linecap="round"/>
            <path d="M14.166 2.5L14.166 5" stroke="#969EA7" stroke-width="2" stroke-linecap="round"/>
            <rect x="5.56641" y="11.5146" width="3.82031" height="2" rx="1" fill="#FEF9F6"/>
            <rect x="10.6133" y="11.5146" width="3.82031" height="2" rx="1" fill="#FEF9F6"/>
            <rect x="5.56641" y="14.8628" width="3.82031" height="2" rx="1" fill="#FEF9F6"/>
            <rect x="10.6133" y="14.8628" width="3.82031" height="2" rx="1" fill="#FEF9F6"/>
        </g>
        <defs>
            <clipPath id="clip0_2766_1148">
                <rect width="20" height="20" fill="white"/>
            </clipPath>
        </defs>
    </symbol>
    <symbol id="exchange-active" width="21" height="21" viewBox="0 0 21 21" fill="none" >
        <rect x="4.48438" y="6.15723" width="11.6548" height="5.86952" fill="url(#paint0_linear_2766_1203)"/>
        <rect x="4.32031" y="12.0269" width="12.0773" height="5.86952" fill="url(#paint1_linear_2766_1203)"/>
        <g clip-path="url(#clip0_2766_1203)">
            <path d="M16.3396 17.7231C15.2971 17.7231 14.2546 17.3706 13.3396 16.7331C11.5096 18.0156 9.16964 18.0156 7.33964 16.7331C6.42464 17.3706 5.38214 17.7231 4.33964 17.7231H2.83964V19.2231H4.33964C5.37464 19.2231 6.39464 18.9606 7.33964 18.4806C9.22964 19.4481 11.4496 19.4481 13.3396 18.4806C14.2846 18.9681 15.3046 19.2231 16.3396 19.2231H17.8396V17.7231H16.3396ZM4.30214 16.2231H4.33964C5.53964 16.2231 6.60464 15.5631 7.33964 14.7231C8.07464 15.5631 9.13964 16.2231 10.3396 16.2231C11.5396 16.2231 12.6046 15.5631 13.3396 14.7231C14.0746 15.5631 15.1396 16.2231 16.3396 16.2231H16.3771L17.7946 11.2131C17.8546 11.0181 17.8396 10.8081 17.7496 10.6281C17.6596 10.4481 17.4946 10.3131 17.2996 10.2531L16.3396 9.93814V6.47314C16.3396 5.64814 15.6646 4.97314 14.8396 4.97314H12.5896V2.72314H8.08964V4.97314H5.83964C5.01464 4.97314 4.33964 5.64814 4.33964 6.47314V9.93814L3.37214 10.2531C3.17714 10.3131 3.01214 10.4481 2.92214 10.6281C2.83214 10.8081 2.80964 11.0181 2.87714 11.2131L4.30214 16.2231ZM5.83964 6.47314H14.8396V9.45064L10.3396 7.97314L5.83964 9.45064V6.47314Z" fill="#18254E"/>
        </g>
        <defs>
            <linearGradient id="paint0_linear_2766_1203" x1="10.3118" y1="6.15723" x2="10.3118" y2="12.0267" gradientUnits="userSpaceOnUse">
                <stop stop-color="#2A90FF"/>
                <stop offset="1" stop-color="#63C9FF"/>
            </linearGradient>
            <linearGradient id="paint1_linear_2766_1203" x1="10.3589" y1="12.0269" x2="10.3589" y2="17.8964" gradientUnits="userSpaceOnUse">
                <stop stop-color="#2A90FF"/>
                <stop offset="1" stop-color="#63C9FF"/>
            </linearGradient>
            <clipPath id="clip0_2766_1203">
                <rect width="18" height="18" fill="white" transform="translate(1.33984 1.97314)"/>
            </clipPath>
        </defs>
    </symbol>
    <symbol id="exchange-passive" width="21" height="20" viewBox="0 0 21 20" fill="none">
        <rect x="4.48438" y="5.18408" width="11.6548" height="5.86952" fill="#FEF9F6"/>
        <rect x="4.32031" y="11.0537" width="12.0773" height="5.86952" fill="#FEF9F6"/>
        <path d="M16.3396 16.75C15.2971 16.75 14.2546 16.3975 13.3396 15.76C11.5096 17.0425 9.16964 17.0425 7.33964 15.76C6.42464 16.3975 5.38214 16.75 4.33964 16.75H2.83964V18.25H4.33964C5.37464 18.25 6.39464 17.9875 7.33964 17.5075C9.22964 18.475 11.4496 18.475 13.3396 17.5075C14.2846 17.995 15.3046 18.25 16.3396 18.25H17.8396V16.75H16.3396ZM4.30214 15.25H4.33964C5.53964 15.25 6.60464 14.59 7.33964 13.75C8.07464 14.59 9.13964 15.25 10.3396 15.25C11.5396 15.25 12.6046 14.59 13.3396 13.75C14.0746 14.59 15.1396 15.25 16.3396 15.25H16.3771L17.7946 10.24C17.8546 10.045 17.8396 9.835 17.7496 9.655C17.6596 9.475 17.4946 9.34 17.2996 9.28L16.3396 8.965V5.5C16.3396 4.675 15.6646 4 14.8396 4H12.5896V1.75H8.08964V4H5.83964C5.01464 4 4.33964 4.675 4.33964 5.5V8.965L3.37214 9.28C3.17714 9.34 3.01214 9.475 2.92214 9.655C2.83214 9.835 2.80964 10.045 2.87714 10.24L4.30214 15.25ZM5.83964 5.5H14.8396V8.4775L10.3396 7L5.83964 8.4775V5.5Z" fill="#969EA7"/>
    </symbol>
    <symbol id="main-active" width="20" height="21" viewBox="0 0 20 21" fill="none">
        <path d="M3 12.5316C3 11.5225 3 11.018 3.22166 10.5872C3.44333 10.1565 3.8539 9.86321 4.67505 9.27668L8.83752 6.30348C9.39886 5.90253 9.67953 5.70205 10 5.70205C10.3205 5.70205 10.6011 5.90253 11.1625 6.30348L15.325 9.27668C16.1461 9.86321 16.5567 10.1565 16.7783 10.5872C17 11.018 17 11.5225 17 12.5316V17.4731C17 18.416 17 18.8874 16.7071 19.1803C16.4142 19.4731 15.9428 19.4731 15 19.4731H5C4.05719 19.4731 3.58579 19.4731 3.29289 19.1803C3 18.8874 3 18.416 3 17.4731V12.5316Z" fill="#18254E"/>
        <path d="M1 10.8598C1 11.1266 1 11.2601 1.0841 11.3012C1.16819 11.3423 1.27352 11.2604 1.48418 11.0966L8.77212 5.42816C9.36197 4.96939 9.65689 4.74001 10 4.74001C10.3431 4.74001 10.638 4.96939 11.2279 5.42816L18.5158 11.0966C18.7265 11.2604 18.8318 11.3423 18.9159 11.3012C19 11.2601 19 11.1266 19 10.8598V10.4513C19 9.97096 19 9.73079 18.8983 9.52288C18.7966 9.31497 18.607 9.16751 18.2279 8.87261L11.2279 3.42816C10.638 2.96939 10.3431 2.74001 10 2.74001C9.65689 2.74001 9.36197 2.96939 8.77212 3.42816L1.77212 8.87261C1.39295 9.16751 1.20337 9.31497 1.10168 9.52288C1 9.73079 1 9.97096 1 10.4513V10.8598Z" fill="#18254E"/>
        <path d="M10.5 13.4731H9.5C8.39543 13.4731 7.5 14.3686 7.5 15.4731V19.3231C7.5 19.406 7.56716 19.4731 7.65 19.4731H12.35C12.4328 19.4731 12.5 19.406 12.5 19.3231V15.4731C12.5 14.3686 11.6046 13.4731 10.5 13.4731Z" fill="url(#paint0_linear_2766_1209)"/>
        <path d="M3.02344 11.8713C3.20222 11.5576 4.32933 10.2727 7.4082 7.64153L10.3691 6.38221L15.692 9.97959L16.9991 13.3471L16.9466 9.48619L16.8396 9.40955L10.1183 4.38281L3.02344 9.37882V11.8713Z" fill="#18254E"/>
        <defs>
            <linearGradient id="paint0_linear_2766_1209" x1="10" y1="13.4731" x2="10" y2="19.4731" gradientUnits="userSpaceOnUse">
                <stop stop-color="#248AFF"/>
                <stop offset="1" stop-color="#69D0FF"/>
            </linearGradient>
        </defs>
    </symbol>
    <symbol id="main-passive" width="20" height="20" viewBox="0 0 20 20" fill="none" >
        <path d="M3 11.5585C3 10.5494 3 10.0448 3.22166 9.61407C3.44333 9.18334 3.8539 8.89007 4.67505 8.30354L8.83752 5.33034C9.39886 4.92938 9.67953 4.7289 10 4.7289C10.3205 4.7289 10.6011 4.92938 11.1625 5.33034L15.325 8.30354C16.1461 8.89007 16.5567 9.18334 16.7783 9.61407C17 10.0448 17 10.5494 17 11.5585V16.5C17 17.4428 17 17.9142 16.7071 18.2071C16.4142 18.5 15.9428 18.5 15 18.5H5C4.05719 18.5 3.58579 18.5 3.29289 18.2071C3 17.9142 3 17.4428 3 16.5V11.5585Z" fill="#969EA7"/>
        <path d="M1 9.88661C1 10.1535 1 10.2869 1.0841 10.3281C1.16819 10.3692 1.27352 10.2873 1.48418 10.1234L8.77212 4.45502C9.36197 3.99625 9.65689 3.76686 10 3.76686C10.3431 3.76686 10.638 3.99625 11.2279 4.45502L18.5158 10.1234C18.7265 10.2873 18.8318 10.3692 18.9159 10.3281C19 10.2869 19 10.1535 19 9.88661V9.47817C19 8.99782 19 8.75764 18.8983 8.54973C18.7966 8.34182 18.607 8.19437 18.2279 7.89946L11.2279 2.45502C10.638 1.99625 10.3431 1.76686 10 1.76686C9.65689 1.76686 9.36197 1.99625 8.77212 2.45502L1.77212 7.89946C1.39295 8.19437 1.20337 8.34182 1.10168 8.54973C1 8.75764 1 8.99782 1 9.47817V9.88661Z" fill="#969EA7"/>
        <path d="M10.5 12.5H9.5C8.39543 12.5 7.5 13.3954 7.5 14.5V18.35C7.5 18.4328 7.56716 18.5 7.65 18.5H12.35C12.4328 18.5 12.5 18.4328 12.5 18.35V14.5C12.5 13.3954 11.6046 12.5 10.5 12.5Z" fill="#FEF9F6"/>
        <path d="M3.02344 10.8981C3.20222 10.5845 4.32933 9.29954 7.4082 6.66838L10.3691 5.40906L15.692 9.00645L16.9991 12.374L16.9466 8.51305L16.8396 8.43641L10.1183 3.40967L3.02344 8.40567V10.8981Z" fill="#969EA7"/>
    </symbol>
</svg>
