<svg width="25" height="25" viewBox="0 0 25 25" fill="none" xmlns="http://www.w3.org/2000/svg">
<path d="M5.67773 22.6123C5.12773 22.6123 4.6569 22.4165 4.26523 22.0248C3.87357 21.6331 3.67773 21.1623 3.67773 20.6123V6.6123C3.67773 6.0623 3.87357 5.59147 4.26523 5.1998C4.6569 4.80814 5.12773 4.6123 5.67773 4.6123H6.67773V2.6123H8.67773V4.6123H16.6777V2.6123H18.6777V4.6123H19.6777C20.2277 4.6123 20.6986 4.80814 21.0902 5.1998C21.4819 5.59147 21.6777 6.0623 21.6777 6.6123V20.6123C21.6777 21.1623 21.4819 21.6331 21.0902 22.0248C20.6986 22.4165 20.2277 22.6123 19.6777 22.6123H5.67773ZM5.67773 20.6123H19.6777V10.6123H5.67773V20.6123ZM5.67773 8.6123H19.6777V6.6123H5.67773V8.6123ZM12.6777 14.6123C12.3944 14.6123 12.1569 14.5165 11.9652 14.3248C11.7736 14.1331 11.6777 13.8956 11.6777 13.6123C11.6777 13.329 11.7736 13.0915 11.9652 12.8998C12.1569 12.7081 12.3944 12.6123 12.6777 12.6123C12.9611 12.6123 13.1986 12.7081 13.3902 12.8998C13.5819 13.0915 13.6777 13.329 13.6777 13.6123C13.6777 13.8956 13.5819 14.1331 13.3902 14.3248C13.1986 14.5165 12.9611 14.6123 12.6777 14.6123ZM8.67773 14.6123C8.3944 14.6123 8.1569 14.5165 7.96523 14.3248C7.77357 14.1331 7.67773 13.8956 7.67773 13.6123C7.67773 13.329 7.77357 13.0915 7.96523 12.8998C8.1569 12.7081 8.3944 12.6123 8.67773 12.6123C8.96107 12.6123 9.19857 12.7081 9.39023 12.8998C9.5819 13.0915 9.67773 13.329 9.67773 13.6123C9.67773 13.8956 9.5819 14.1331 9.39023 14.3248C9.19857 14.5165 8.96107 14.6123 8.67773 14.6123ZM16.6777 14.6123C16.3944 14.6123 16.1569 14.5165 15.9652 14.3248C15.7736 14.1331 15.6777 13.8956 15.6777 13.6123C15.6777 13.329 15.7736 13.0915 15.9652 12.8998C16.1569 12.7081 16.3944 12.6123 16.6777 12.6123C16.9611 12.6123 17.1986 12.7081 17.3902 12.8998C17.5819 13.0915 17.6777 13.329 17.6777 13.6123C17.6777 13.8956 17.5819 14.1331 17.3902 14.3248C17.1986 14.5165 16.9611 14.6123 16.6777 14.6123ZM12.6777 18.6123C12.3944 18.6123 12.1569 18.5165 11.9652 18.3248C11.7736 18.1331 11.6777 17.8956 11.6777 17.6123C11.6777 17.329 11.7736 17.0915 11.9652 16.8998C12.1569 16.7081 12.3944 16.6123 12.6777 16.6123C12.9611 16.6123 13.1986 16.7081 13.3902 16.8998C13.5819 17.0915 13.6777 17.329 13.6777 17.6123C13.6777 17.8956 13.5819 18.1331 13.3902 18.3248C13.1986 18.5165 12.9611 18.6123 12.6777 18.6123ZM8.67773 18.6123C8.3944 18.6123 8.1569 18.5165 7.96523 18.3248C7.77357 18.1331 7.67773 17.8956 7.67773 17.6123C7.67773 17.329 7.77357 17.0915 7.96523 16.8998C8.1569 16.7081 8.3944 16.6123 8.67773 16.6123C8.96107 16.6123 9.19857 16.7081 9.39023 16.8998C9.5819 17.0915 9.67773 17.329 9.67773 17.6123C9.67773 17.8956 9.5819 18.1331 9.39023 18.3248C9.19857 18.5165 8.96107 18.6123 8.67773 18.6123ZM16.6777 18.6123C16.3944 18.6123 16.1569 18.5165 15.9652 18.3248C15.7736 18.1331 15.6777 17.8956 15.6777 17.6123C15.6777 17.329 15.7736 17.0915 15.9652 16.8998C16.1569 16.7081 16.3944 16.6123 16.6777 16.6123C16.9611 16.6123 17.1986 16.7081 17.3902 16.8998C17.5819 17.0915 17.6777 17.329 17.6777 17.6123C17.6777 17.8956 17.5819 18.1331 17.3902 18.3248C17.1986 18.5165 16.9611 18.6123 16.6777 18.6123Z" fill="#9A9A9B"/>
</svg>
