<svg width="16" height="16" viewBox="0 0 16 16" fill="none" xmlns="http://www.w3.org/2000/svg">
<path d="M12.6855 0.879811C14.3413 0.327884 15.1694 0.052171 15.6064 0.489186C16.0432 0.926244 15.7677 1.75449 15.2158 3.41008L12.3779 11.9228C11.5936 14.2758 11.2011 15.4529 10.4805 15.4531C9.75971 15.4531 9.36741 14.276 8.58301 11.9228L7.83398 9.67473L12.1875 5.32219L12.2559 5.24602C12.5762 4.8533 12.5535 4.27426 12.1875 3.90813C11.8214 3.54202 11.2424 3.51945 10.8496 3.83977L10.7734 3.90813L6.41992 8.26165L4.17285 7.51262C1.8198 6.72827 0.642739 6.33583 0.642578 5.61516C0.642578 4.8944 1.81964 4.50211 4.17285 3.7177L12.6855 0.879811Z" fill="#8A929B"/>
</svg>
