<svg width="17" height="18" viewBox="0 0 17 18" fill="none" xmlns="http://www.w3.org/2000/svg">
<path opacity="0.5" d="M9.70898 0.730469C12.5179 0.730469 13.9227 0.730175 14.9316 1.4043C15.3683 1.69609 15.7434 2.07115 16.0352 2.50781C16.7093 3.51671 16.709 4.92154 16.709 7.73047C16.709 10.5394 16.7093 11.9442 16.0352 12.9531C15.7434 13.3898 15.3683 13.7648 14.9316 14.0566C14.0503 14.6455 12.8667 14.7191 10.709 14.7285V14.7305L9.60352 16.9414C9.23499 17.6785 8.18298 17.6785 7.81445 16.9414L6.70898 14.7305V14.7285C4.55128 14.7191 3.36768 14.6455 2.48633 14.0566C2.04966 13.7648 1.67461 13.3898 1.38281 12.9531C0.708691 11.9442 0.708984 10.5394 0.708984 7.73047C0.708984 4.92154 0.708691 3.51671 1.38281 2.50781C1.67461 2.07115 2.04966 1.69609 2.48633 1.4043C3.49522 0.730175 4.90006 0.730469 7.70898 0.730469H9.70898ZM4.70898 6.73047C4.1567 6.73047 3.70898 7.17818 3.70898 7.73047C3.70898 8.28275 4.1567 8.73047 4.70898 8.73047C5.26127 8.73047 5.70898 8.28275 5.70898 7.73047C5.70898 7.17818 5.26127 6.73047 4.70898 6.73047ZM8.70898 6.73047C8.1567 6.73047 7.70898 7.17818 7.70898 7.73047C7.70898 8.28275 8.1567 8.73047 8.70898 8.73047C9.26127 8.73047 9.70898 8.28275 9.70898 7.73047C9.70898 7.17818 9.26127 6.73047 8.70898 6.73047ZM12.709 6.73047C12.1567 6.73047 11.709 7.17818 11.709 7.73047C11.709 8.28275 12.1567 8.73047 12.709 8.73047C13.2613 8.73047 13.709 8.28275 13.709 7.73047C13.709 7.17818 13.2613 6.73047 12.709 6.73047Z" fill="#222222"/>
</svg>
