<svg width="229" height="92" viewBox="0 0 229 92" fill="none" xmlns="http://www.w3.org/2000/svg">
<rect width="229" height="92" fill="#F7FBFF"/>
<path d="M160 48.5C160 54.2125 158.875 59.8691 156.689 65.1467C154.503 70.4244 151.298 75.2198 147.259 79.2591C143.22 83.2985 138.424 86.5027 133.147 88.6888C127.869 90.8748 122.213 92 116.5 92V48.5H160Z" fill="#18254E"/>
<path d="M113.5 89C104.897 89 96.4862 86.4488 89.3327 81.6689C82.1792 76.8891 76.6036 70.0953 73.3112 62.1467C70.0188 54.1981 69.1574 45.4517 70.8358 37.0136C72.5143 28.5754 76.6573 20.8244 82.7409 14.7408C88.8244 8.65726 96.5754 4.51429 105.014 2.83584C113.452 1.15738 122.198 2.01883 130.147 5.31124C138.095 8.60366 144.889 14.1792 149.669 21.3327C154.449 28.4862 157 36.8965 157 45.5L113.5 45.5L113.5 89Z" fill="#007FFF"/>
</svg>
