<svg width="21" height="21" viewBox="0 0 21 21" fill="none" xmlns="http://www.w3.org/2000/svg">
<path d="M10.3621 7.12564C11.2211 8.45848 12.3636 9.59219 13.7117 10.443L8.23319 15.9225C7.80813 16.3476 7.59487 16.5601 7.33378 16.6999C7.07283 16.8394 6.77814 16.8985 6.18925 17.0163L3.9451 17.4645C3.61258 17.531 3.44598 17.5649 3.35135 17.4704C3.25676 17.3758 3.29071 17.2092 3.35721 16.8766L3.80546 14.6325C3.92324 14.0435 3.98232 13.7489 4.12186 13.4879C4.2616 13.2268 4.47415 13.0136 4.89921 12.5885L10.3621 7.12564ZM13.6736 3.84244C14.3858 3.30641 15.3667 3.30644 16.0789 3.84244C16.1911 3.92689 16.3083 4.04446 16.5428 4.27896C16.7772 4.51342 16.8948 4.63064 16.9793 4.74283C17.5152 5.45502 17.5153 6.43597 16.9793 7.1481C16.8948 7.26027 16.7772 7.37754 16.5428 7.61197L15.1687 8.98502C13.7698 8.19893 12.613 7.05177 11.8162 5.67154L13.2098 4.27896C13.4442 4.04454 13.5614 3.92688 13.6736 3.84244Z" fill="#18254E"/>
</svg>
