<svg width="17" height="17" viewBox="0 0 17 17" fill="none" xmlns="http://www.w3.org/2000/svg">
<path d="M14.7068 10.7253L10.4402 3.04531C9.86685 2.01198 9.07351 1.44531 8.20018 1.44531C7.32685 1.44531 6.53351 2.01198 5.96018 3.04531L1.69351 10.7253C1.15351 11.7053 1.09351 12.6453 1.52685 13.3853C1.96018 14.1253 2.81351 14.532 3.93351 14.532H12.4668C13.5868 14.532 14.4402 14.1253 14.8735 13.3853C15.3068 12.6453 15.2468 11.6986 14.7068 10.7253ZM7.70018 6.11198C7.70018 5.83865 7.92685 5.61198 8.20018 5.61198C8.47351 5.61198 8.70018 5.83865 8.70018 6.11198V9.44531C8.70018 9.71865 8.47351 9.94531 8.20018 9.94531C7.92685 9.94531 7.70018 9.71865 7.70018 9.44531V6.11198ZM8.67351 11.9186C8.64018 11.9453 8.60685 11.972 8.57351 11.9986C8.53351 12.0253 8.49351 12.0453 8.45351 12.0586C8.41351 12.0786 8.37351 12.092 8.32685 12.0986C8.28685 12.1053 8.24018 12.112 8.20018 12.112C8.16018 12.112 8.11351 12.1053 8.06685 12.0986C8.02685 12.092 7.98685 12.0786 7.94685 12.0586C7.90685 12.0453 7.86685 12.0253 7.82685 11.9986C7.79351 11.972 7.76018 11.9453 7.72685 11.9186C7.60685 11.792 7.53351 11.6186 7.53351 11.4453C7.53351 11.272 7.60685 11.0986 7.72685 10.972C7.76018 10.9453 7.79351 10.9186 7.82685 10.892C7.86685 10.8653 7.90685 10.8453 7.94685 10.832C7.98685 10.812 8.02685 10.7986 8.06685 10.792C8.15351 10.772 8.24685 10.772 8.32685 10.792C8.37351 10.7986 8.41351 10.812 8.45351 10.832C8.49351 10.8453 8.53351 10.8653 8.57351 10.892C8.60685 10.9186 8.64018 10.9453 8.67351 10.972C8.79351 11.0986 8.86685 11.272 8.86685 11.4453C8.86685 11.6186 8.79351 11.792 8.67351 11.9186Z" fill="#FF7B9B"/>
</svg>
