<svg width="150" height="74" viewBox="0 0 150 74" fill="none" xmlns="http://www.w3.org/2000/svg">
<g opacity="0.3" clip-path="url(#clip0_210_682)">
<path d="M17.8796 52.9653L14.2453 54.9547C13.5623 54.2448 12.887 53.7512 12.2192 53.4741C11.5515 53.1988 10.7693 53.0603 9.87269 53.0603C8.23964 53.0603 6.91947 53.5443 5.91026 54.5143C4.90105 55.4843 4.3974 56.7258 4.3974 58.2387C4.3974 59.7516 4.88197 60.9134 5.85493 61.8454C6.82599 62.7775 8.10228 63.2444 9.68191 63.2444C11.6355 63.2444 13.156 62.5819 14.2453 61.2551L17.6869 63.6013C15.8211 66.0159 13.1884 67.2232 9.78684 67.2232C6.72678 67.2232 4.33063 66.3215 2.59838 64.5182C0.866126 62.7148 0 60.604 0 58.1856C0 56.5094 0.421616 54.9661 1.26294 53.5557C2.10427 52.1453 3.28136 51.0367 4.78849 50.2299C6.29754 49.4232 7.984 49.0208 9.8498 49.0208C11.5763 49.0208 13.1273 49.3624 14.5028 50.0477C15.8783 50.7311 17.002 51.7049 17.8777 52.9672L17.8796 52.9653Z" fill="white"/>
<path d="M20.0073 49.4649H23.7504V51.6461C24.1548 50.7861 24.6928 50.1331 25.3662 49.6889C26.0378 49.2448 26.7742 49.0208 27.5735 49.0208C28.1382 49.0208 28.7296 49.1688 29.3477 49.4649L27.9894 53.2045C27.4781 52.9502 27.0565 52.823 26.7265 52.823C26.0549 52.823 25.4864 53.2368 25.0228 54.0644C24.5593 54.8921 24.3265 56.5151 24.3265 58.9335L24.3418 59.7763V66.7771H20.0073V49.4649Z" fill="white"/>
<path d="M48.3682 59.3776H34.3442C34.5465 60.6076 35.0883 61.5871 35.9678 62.3142C36.8472 63.0412 37.969 63.4038 39.335 63.4038C40.9661 63.4038 42.3683 62.8362 43.5416 61.701L47.2198 63.419C46.3021 64.7136 45.2052 65.6703 43.925 66.291C42.6468 66.9118 41.1264 67.2212 39.3674 67.2212C36.6374 67.2212 34.4148 66.3651 32.6978 64.6509C30.9809 62.9387 30.1243 60.7918 30.1243 58.2139C30.1243 55.6361 30.9789 53.3791 32.6902 51.6346C34.4015 49.89 36.5458 49.0168 39.127 49.0168C41.8666 49.0168 44.0948 49.89 45.8118 51.6346C47.5288 53.3791 48.3873 55.6835 48.3873 58.548L48.372 59.3757L48.3682 59.3776ZM44.0033 55.9569C43.7152 54.9926 43.1467 54.2067 42.2977 53.6012C41.4488 52.9956 40.4644 52.6938 39.3426 52.6938C38.1254 52.6938 37.0571 53.0336 36.1395 53.7131C35.5633 54.1365 35.0291 54.8863 34.5369 55.9569H44.0033Z" fill="white"/>
<path d="M48.834 49.465H53.1074L56.6062 59.3151L60.3702 49.465H62.9839L66.6811 59.2031L70.1838 49.465H74.4858L68.1368 66.7771H65.3705L61.6599 56.9119L57.8386 66.7771H55.1029L48.834 49.465Z" fill="white"/>
<path d="M76.8784 49.4649H78.4294C78.439 47.1946 78.4771 45.8525 78.542 45.4387C78.6584 44.4838 79.0609 43.7283 79.7496 43.1721C80.4364 42.616 81.4094 42.3369 82.6685 42.3369C83.5747 42.3369 84.5972 42.5438 85.7381 42.9576V46.2663C85.1085 46.086 84.5915 45.9949 84.1871 45.9949C83.6758 45.9949 83.3019 46.1012 83.0672 46.3138C82.8974 46.4732 82.8116 46.8016 82.8116 47.3009L82.7963 49.4649H85.5626V53.1399H82.7963V66.7771H78.4313V53.1399H76.8803V49.4649H76.8784Z" fill="white"/>
<path d="M88.1321 42.7811H92.499V66.7771H88.1321V42.7811Z" fill="white"/>
<path d="M108.654 49.4648H113.019V66.777H108.654V64.9471C107.801 65.7538 106.949 66.3347 106.09 66.6897C105.234 67.0446 104.304 67.2231 103.303 67.2231C101.056 67.2231 99.1135 66.3556 97.4728 64.6206C95.8321 62.8856 95.0137 60.731 95.0137 58.1532C95.0137 55.5753 95.8073 53.2898 97.3946 51.5814C98.9818 49.873 100.909 49.0206 103.177 49.0206C104.221 49.0206 105.201 49.2162 106.115 49.6091C107.031 50.002 107.878 50.5905 108.654 51.3745V49.4648ZM104.064 53.0279C102.715 53.0279 101.594 53.5024 100.701 54.4516C99.8079 55.4007 99.3615 56.6175 99.3615 58.1038C99.3615 59.5902 99.8155 60.8297 100.724 61.7959C101.632 62.7603 102.752 63.2443 104.079 63.2443C105.407 63.2443 106.586 62.7698 107.49 61.8206C108.393 60.8715 108.845 59.6281 108.845 58.0886C108.845 56.5491 108.393 55.3627 107.49 54.4288C106.588 53.4948 105.445 53.0279 104.064 53.0279Z" fill="white"/>
<path d="M129.423 49.9091H133.773V64.7403C133.773 67.6674 133.182 69.8219 131.999 71.2001C130.41 73.068 128.017 74.0019 124.818 74.0019C123.113 74.0019 121.678 73.7893 120.516 73.366C119.354 72.9408 118.374 72.3181 117.574 71.4962C116.775 70.6742 116.184 69.6739 115.8 68.4969H120.613C121.039 68.9848 121.588 69.3531 122.26 69.6036C122.931 69.8523 123.725 69.9776 124.643 69.9776C125.816 69.9776 126.758 69.7973 127.474 69.4366C128.187 69.0759 128.691 68.6089 128.985 68.0357C129.278 67.4624 129.423 66.4753 129.423 65.0763C128.656 65.8394 127.851 66.3899 127.008 66.724C126.167 67.0581 125.211 67.2251 124.147 67.2251C121.811 67.2251 119.839 66.388 118.231 64.7118C116.62 63.0356 115.815 60.9134 115.815 58.3469C115.815 55.6001 116.668 53.3925 118.374 51.7277C119.919 50.2224 121.764 49.4688 123.906 49.4688C124.908 49.4688 125.854 49.651 126.745 50.0173C127.636 50.3837 128.529 50.9855 129.423 51.8226V49.9129V49.9091ZM124.898 53.5215C123.523 53.5215 122.388 53.9809 121.493 54.8978C120.598 55.8146 120.15 56.9688 120.15 58.3583C120.15 59.7478 120.608 60.9836 121.525 61.9062C122.441 62.8287 123.593 63.29 124.98 63.29C126.367 63.29 127.451 62.8401 128.33 61.9384C129.21 61.0368 129.649 59.8541 129.649 58.3906C129.649 56.927 129.206 55.7767 128.321 54.8731C127.436 53.9714 126.295 53.5215 124.898 53.5215Z" fill="white"/>
<path d="M109.665 23.4606H96.5053C95.1584 23.4606 94.0672 22.3748 94.0672 21.0347V11.8129C94.0672 10.4727 95.1584 9.38691 96.5053 9.38691H108.566C108.786 9.38691 108.915 9.14583 108.801 8.9598C107.502 6.86222 106.464 4.98484 105.029 3.22135C103.373 1.18641 100.889 0 98.2585 0H95.2023C88.2867 0 82.6816 5.5771 82.6816 12.4583V20.3874C82.6816 27.2686 88.2867 32.8457 95.2023 32.8457H123.25C123.456 32.8457 123.569 32.6084 123.437 32.4508C122.819 31.7105 121.415 30.0286 119.904 28.2291C117.369 25.2089 117.357 23.3259 109.663 23.4606H109.665Z" fill="white"/>
<path d="M150 21.8793C150 14.9981 144.395 9.42102 137.479 9.42102H109.431C109.225 9.42102 109.112 9.6583 109.244 9.81586C109.862 10.5562 111.266 12.238 112.777 14.0376C115.313 17.0577 115.324 18.9408 123.018 18.806H136.178C137.525 18.806 138.616 19.8918 138.616 21.232V30.4538C138.616 31.794 137.525 32.8798 136.178 32.8798H124.117C123.898 32.8798 123.768 33.1208 123.882 33.3069C125.182 35.4044 126.219 37.2818 127.654 39.0453C129.308 41.0784 131.794 41.4068 134.423 41.4068H137.479C138.507 41.4068 139.505 41.3005 140.461 41.0992C140.411 46.9971 140.781 48.0431 143.967 50.7367C145.522 52.0522 148.155 53.6126 149.616 54.6509C149.818 54.7952 150.002 54.6263 150.002 54.2865V29.8084V21.8774L150 21.8793Z" fill="white"/>
</g>
<defs>
<clipPath id="clip0_210_682">
<rect width="150" height="74" fill="white"/>
</clipPath>
</defs>
</svg>
