<svg width="24" height="25" viewBox="0 0 24 25" fill="none" xmlns="http://www.w3.org/2000/svg">
<path d="M16.7656 5.8623C19.1104 5.86251 20.9902 7.74994 20.9902 10.2578C20.9901 11.7883 20.3301 13.2547 18.9795 14.9609C17.6169 16.6822 15.6499 18.5296 13.1846 20.8379L13.1826 20.8389L12.4902 21.4893L11.7979 20.8389L11.7959 20.8379L10.042 19.1875C8.38485 17.6136 7.02291 16.2519 6.00098 14.9609C4.65034 13.2547 3.99035 11.7883 3.99023 10.2578C3.99023 7.74994 5.87009 5.86251 8.21484 5.8623C9.55344 5.8623 10.8649 6.51123 11.7217 7.54199L12.4902 8.4668L13.2588 7.54199C14.1156 6.51123 15.427 5.8623 16.7656 5.8623Z" stroke="#18254E" stroke-width="2"/>
</svg>
