<svg width="20" height="21" viewBox="0 0 20 21" fill="none" xmlns="http://www.w3.org/2000/svg">
<g opacity="0.5">
<mask id="mask0_210_312" style="mask-type:alpha" maskUnits="userSpaceOnUse" x="0" y="0" width="20" height="21">
<rect y="0.5" width="20" height="20" fill="#D9D9D9"/>
</mask>
<g mask="url(#mask0_210_312)">
<path d="M10 18V16.3333H15.8333V4.66667H10V3H15.8333C16.2917 3 16.684 3.16319 17.0104 3.48958C17.3368 3.81597 17.5 4.20833 17.5 4.66667V16.3333C17.5 16.7917 17.3368 17.184 17.0104 17.5104C16.684 17.8368 16.2917 18 15.8333 18H10ZM8.33333 14.6667L7.1875 13.4583L9.3125 11.3333H2.5V9.66667H9.3125L7.1875 7.54167L8.33333 6.33333L12.5 10.5L8.33333 14.6667Z" fill="white"/>
</g>
</g>
</svg>
