<svg width="42" height="33" viewBox="0 0 42 33" fill="none" xmlns="http://www.w3.org/2000/svg">
<path d="M16.6613 14.1425H8.53559C7.70394 14.1425 7.03014 13.488 7.03014 12.6801V7.12104C7.03014 6.31316 7.70394 5.65861 8.53559 5.65861H15.9827C16.1182 5.65861 16.1983 5.51329 16.1276 5.40114C15.3254 4.13668 14.6846 3.00496 13.7988 1.94189C12.7763 0.715194 11.2426 0 9.61815 0H7.73104C3.46089 0 0 3.36198 0 7.51011V12.2899C0 16.438 3.46089 19.8 7.73104 19.8H25.0496C25.1768 19.8 25.2463 19.657 25.165 19.562C24.7834 19.1157 23.9164 18.1018 22.9834 17.017C21.4179 15.1964 21.4108 14.0613 16.6601 14.1425H16.6613Z" fill="#090910"/>
<path d="M41.9988 13.1274C41.9988 8.96122 38.466 5.58462 34.1071 5.58462H16.4285C16.2987 5.58462 16.2277 5.72828 16.3107 5.82367C16.7003 6.27189 17.5853 7.29016 18.5376 8.37968C20.1357 10.2082 20.1429 11.3483 24.9924 11.2667H33.287C34.1359 11.2667 34.8237 11.9241 34.8237 12.7355V18.3187C34.8237 19.1301 34.1359 19.7875 33.287 19.7875H25.685C25.5468 19.7875 25.465 19.9335 25.5371 20.0461C26.356 21.3161 27.0102 22.4527 27.9144 23.5204C28.9569 24.7513 30.5237 24.9501 32.1807 24.9501H34.1071C34.7552 24.9501 35.3841 24.8857 35.9865 24.7639C35.9552 28.3348 36.1885 28.968 38.1966 30.5989C39.1766 31.3953 40.836 32.34 41.7571 32.9687C41.8846 33.056 42 32.9537 42 32.748V13.1262L41.9988 13.1274Z" fill="#090910"/>
</svg>
