<svg width="24" height="24" viewBox="0 0 24 24" fill="none" xmlns="http://www.w3.org/2000/svg">
<path d="M17.8186 12.7413C17.5391 12.1713 16.7507 11.6912 15.7027 12.5013C14.2755 13.6415 12 13.6415 12 13.6415C12 13.6415 9.72446 13.6415 8.29726 12.5013C7.24932 11.6912 6.46087 12.1713 6.18141 12.7413C5.68239 13.7415 6.2413 14.2315 7.50881 15.0416C8.59668 15.7417 10.0838 16.0018 11.0419 16.1018L10.2434 16.9019C9.10568 18.032 8.00783 19.1221 7.2593 19.8822C6.81018 20.3423 6.81018 21.0724 7.2593 21.5024L7.39903 21.6625C7.84814 22.1125 8.5867 22.1125 9.03581 21.6625L12 18.6821C13.1477 19.8122 14.2356 20.9024 14.9941 21.6625C15.4432 22.1125 16.1718 22.1125 16.6309 21.6625L16.7607 21.5024C17.2198 21.0724 17.2198 20.3423 16.7607 19.8822L13.7865 16.9019L12.998 16.0918C13.9462 16.0018 15.4133 15.7317 16.4912 15.0416C17.7587 14.2315 18.3176 13.7415 17.8186 12.7413ZM12 4.57032C13.3773 4.57032 14.4951 5.69046 14.4951 7.06063C14.4951 8.44081 13.3773 9.55094 12 9.55094C10.6227 9.55094 9.50489 8.44081 9.50489 7.06063C9.50489 5.69046 10.6227 4.57032 12 4.57032ZM12 12.1213C14.7945 12.1213 17.0501 9.86098 17.0501 7.06063C17.0501 5.71847 16.518 4.43128 15.571 3.48223C14.6239 2.53317 13.3394 2 12 2C10.6606 2 9.37612 2.53317 8.42904 3.48223C7.48197 4.43128 6.94991 5.71847 6.94991 7.06063C6.94991 9.86098 9.20548 12.1213 12 12.1213Z" fill="#CA6D00"/>
</svg>
