<svg width="16" height="16" viewBox="0 0 16 16" fill="none" xmlns="http://www.w3.org/2000/svg">
<path d="M14.5423 15.1123L9.29232 9.8623C8.87565 10.1956 8.39648 10.4595 7.85482 10.654C7.31315 10.8484 6.73676 10.9456 6.12565 10.9456C4.61176 10.9456 3.33051 10.4213 2.2819 9.37272C1.23329 8.32411 0.708984 7.04286 0.708984 5.52897C0.708984 4.01508 1.23329 2.73383 2.2819 1.68522C3.33051 0.63661 4.61176 0.112305 6.12565 0.112305C7.63954 0.112305 8.92079 0.63661 9.9694 1.68522C11.018 2.73383 11.5423 4.01508 11.5423 5.52897C11.5423 6.14008 11.4451 6.71647 11.2507 7.25814C11.0562 7.7998 10.7923 8.27897 10.459 8.69564L15.709 13.9456L14.5423 15.1123ZM6.12565 9.27897C7.16732 9.27897 8.05273 8.91439 8.7819 8.18522C9.51107 7.45605 9.87565 6.57064 9.87565 5.52897C9.87565 4.4873 9.51107 3.60189 8.7819 2.87272C8.05273 2.14355 7.16732 1.77897 6.12565 1.77897C5.08398 1.77897 4.19857 2.14355 3.4694 2.87272C2.74023 3.60189 2.37565 4.4873 2.37565 5.52897C2.37565 6.57064 2.74023 7.45605 3.4694 8.18522C4.19857 8.91439 5.08398 9.27897 6.12565 9.27897Z" fill="#706F75"/>
</svg>
