<svg width="24" height="24" viewBox="0 0 24 24" fill="none" xmlns="http://www.w3.org/2000/svg">
<path fill-rule="evenodd" clip-rule="evenodd" d="M6.525 16.4625C6.175 15.6875 6 14.8667 6 14C6 13.3833 6.0875 12.7583 6.2625 12.125C6.4375 11.4917 6.69583 10.8708 7.0375 10.2625C7.37917 9.65417 7.8 9.05417 8.3 8.4625C8.8 7.87083 9.375 7.3 10.025 6.75C10.1417 7.75 10.5792 8.59167 11.3375 9.275C12.0958 9.95833 12.9917 10.3 14.025 10.3C14.4083 10.3 14.7833 10.2458 15.15 10.1375C15.5167 10.0292 15.8667 9.86667 16.2 9.65C16.7833 10.2333 17.2292 10.8958 17.5375 11.6375C17.8458 12.3792 18 13.1667 18 14C18 14.8667 17.825 15.6875 17.475 16.4625C17.125 17.2375 16.625 17.9167 15.975 18.5C15.9917 18.4167 16 18.3417 16 18.275V18.05C16 17.5167 15.9 17.0167 15.7 16.55C15.5 16.0833 15.2083 15.6583 14.825 15.275L12 12.5L9.175 15.275C8.79167 15.6583 8.5 16.0833 8.3 16.55C8.1 17.0167 8 17.5167 8 18.05V18.275C8 18.3417 8.00833 18.4167 8.025 18.5C7.375 17.9167 6.875 17.2375 6.525 16.4625ZM10.575 16.7L12 15.3L13.425 16.7C13.6083 16.8833 13.75 17.0875 13.85 17.3125C13.95 17.5375 14 17.7833 14 18.05C14 18.5833 13.8042 19.0417 13.4125 19.425C13.0208 19.8083 12.55 20 12 20C11.45 20 10.9792 19.8083 10.5875 19.425C10.1958 19.0417 10 18.5833 10 18.05C10 17.8 10.05 17.5583 10.15 17.325C10.25 17.0917 10.3917 16.8833 10.575 16.7ZM12 6.3V3C9.55 4.31667 7.60417 5.94167 6.1625 7.875C4.72083 9.80833 4 11.85 4 14C4 16.2333 4.775 18.125 6.325 19.675C7.875 21.225 9.76667 22 12 22C14.2333 22 16.125 21.225 17.675 19.675C19.225 18.125 20 16.2333 20 14C20 12.5333 19.6417 11.175 18.925 9.925C18.2083 8.675 17.2333 7.7 16 7L15.55 7.55C15.35 7.8 15.1208 7.9875 14.8625 8.1125C14.6042 8.2375 14.325 8.3 14.025 8.3C13.4583 8.3 12.9792 8.10833 12.5875 7.725C12.1958 7.34167 12 6.86667 12 6.3Z" fill="#F7BE03"/>
</svg>
