<svg width="21" height="21" viewBox="0 0 21 21" fill="none" xmlns="http://www.w3.org/2000/svg">
<path d="M11.2354 1.7793C11.4553 1.7793 11.5653 1.77977 11.6592 1.79785C12.0248 1.86851 12.3211 2.13635 12.4277 2.49316C12.4551 2.58486 12.4664 2.69487 12.4883 2.91406C12.5296 3.32809 12.5504 3.53524 12.6025 3.66602C12.8109 4.18852 13.4089 4.43583 13.9258 4.21387C14.0552 4.15827 14.2166 4.02651 14.5391 3.7627C14.7099 3.62296 14.7956 3.5533 14.8799 3.50781C15.2075 3.33114 15.6067 3.35116 15.915 3.55957C15.9942 3.61317 16.0721 3.69121 16.2275 3.84668L16.9727 4.5918C17.1285 4.74764 17.2071 4.82597 17.2607 4.90527C17.4693 5.21384 17.4885 5.61272 17.3115 5.94043C17.266 6.02464 17.1962 6.10979 17.0566 6.28027C16.7929 6.60245 16.6611 6.76419 16.6055 6.89355C16.3834 7.41023 16.6311 8.00813 17.1533 8.2168C17.2841 8.26897 17.4917 8.29052 17.9062 8.33203C18.1259 8.35403 18.2363 8.36509 18.3281 8.39258C18.6844 8.4994 18.9518 8.79496 19.0225 9.16016C19.0407 9.25421 19.041 9.36454 19.041 9.58496V10.6396C19.041 10.8598 19.0406 10.9705 19.0225 11.0645C18.9516 11.4298 18.6838 11.7254 18.3271 11.832C18.2354 11.8594 18.1255 11.8707 17.9062 11.8926C17.4923 11.9339 17.2852 11.9548 17.1543 12.0068C16.6317 12.2153 16.3833 12.8141 16.6055 13.3311C16.6612 13.4604 16.7932 13.6215 17.0566 13.9434C17.1963 14.114 17.267 14.1999 17.3125 14.2842C17.4892 14.6119 17.4693 15.0109 17.2607 15.3193C17.2071 15.3987 17.1286 15.4769 16.9727 15.6328L16.2285 16.377C16.0728 16.5326 15.9943 16.6104 15.915 16.6641C15.6067 16.8724 15.2074 16.8924 14.8799 16.7158C14.7957 16.6704 14.7105 16.6004 14.54 16.4609C14.2173 16.1969 14.0554 16.0644 13.9258 16.0088C13.4091 15.7872 12.8109 16.0354 12.6025 16.5576C12.5503 16.6886 12.5297 16.896 12.4883 17.3105C12.4664 17.5298 12.4551 17.6397 12.4277 17.7314C12.3211 18.088 12.0255 18.3559 11.6602 18.4268C11.5661 18.445 11.455 18.4453 11.2344 18.4453H10.1807C9.96024 18.4453 9.84991 18.445 9.75586 18.4268C9.39066 18.3561 9.09511 18.0887 8.98828 17.7324C8.96079 17.6406 8.94973 17.5302 8.92773 17.3105C8.88623 16.896 8.86468 16.6884 8.8125 16.5576C8.60384 16.0354 8.00593 15.7877 7.48926 16.0098C7.35989 16.0654 7.19815 16.1972 6.87598 16.4609C6.70549 16.6005 6.62035 16.6703 6.53613 16.7158C6.20842 16.8928 5.80954 16.8736 5.50098 16.665C5.42167 16.6114 5.34334 16.5328 5.1875 16.377L4.44238 15.6318C4.28692 15.4764 4.20888 15.3985 4.15527 15.3193C3.94686 15.011 3.92684 14.6118 4.10352 14.2842C4.14901 14.1999 4.21866 14.1142 4.3584 13.9434C4.62221 13.6209 4.75397 13.4595 4.80957 13.3301C5.03153 12.8132 4.78422 12.2152 4.26172 12.0068C4.13094 11.9547 3.92379 11.9339 3.50977 11.8926C3.29058 11.8707 3.18056 11.8594 3.08887 11.832C2.73205 11.7254 2.46421 11.4291 2.39355 11.0635C2.37547 10.9696 2.375 10.8596 2.375 10.6396V9.58496C2.375 9.3645 2.37535 9.25423 2.39355 9.16016C2.46425 8.79495 2.73159 8.49941 3.08789 8.39258C3.17973 8.36507 3.29016 8.35403 3.50977 8.33203C3.9244 8.2905 4.13174 8.26912 4.2627 8.2168C4.78469 8.00818 5.03225 7.41014 4.81055 6.89355C4.75482 6.76399 4.62219 6.60273 4.3584 6.28027C4.21868 6.10949 4.14902 6.02384 4.10352 5.93945C3.92698 5.61197 3.94707 5.21357 4.15527 4.90527C4.20899 4.8258 4.28717 4.74694 4.44336 4.59082L5.18848 3.84668C5.344 3.69122 5.42179 3.61317 5.50098 3.55957C5.80935 3.35123 6.20857 3.33115 6.53613 3.50781C6.62035 3.55327 6.70552 3.62326 6.87598 3.7627C7.19824 4.02631 7.35983 4.1582 7.48926 4.21387C8.00593 4.43577 8.60389 4.18816 8.8125 3.66602C8.86474 3.53515 8.88621 3.32752 8.92773 2.91309C8.94969 2.69392 8.96083 2.58389 8.98828 2.49219C9.09512 2.13588 9.39064 1.86854 9.75586 1.79785C9.84988 1.77968 9.96026 1.7793 10.1807 1.7793H11.2354ZM10.708 6.7793C8.86706 6.7793 7.375 8.27136 7.375 10.1123C7.375 11.9533 8.86706 13.4453 10.708 13.4453C12.549 13.4453 14.041 11.9533 14.041 10.1123C14.041 8.27136 12.549 6.7793 10.708 6.7793Z" fill="#18254E"/>
</svg>
