<svg width="37" height="20" viewBox="0 0 37 20" fill="none" xmlns="http://www.w3.org/2000/svg">
<g filter="url(#filter0_d_2578_641)">
<rect x="4.70898" y="2.1123" width="28" height="11" rx="4" fill="url(#paint0_linear_2578_641)"/>
</g>
<g filter="url(#filter1_i_2578_641)">
<path d="M12.6365 10.1123V4.29412H14.932C15.3733 4.29412 15.7492 4.3784 16.0598 4.54696C16.3704 4.71363 16.6072 4.94564 16.7701 5.24299C16.9348 5.53844 17.0172 5.87935 17.0172 6.26571C17.0172 6.65208 16.9339 6.99299 16.7672 7.28844C16.6006 7.5839 16.3591 7.81401 16.0428 7.97878C15.7284 8.14355 15.3477 8.22594 14.9007 8.22594H13.4377V7.24015H14.7019C14.9386 7.24015 15.1337 7.19943 15.2871 7.11799C15.4424 7.03465 15.5579 6.92007 15.6337 6.77424C15.7114 6.62651 15.7502 6.457 15.7502 6.26571C15.7502 6.07253 15.7114 5.90397 15.6337 5.76003C15.5579 5.6142 15.4424 5.50151 15.2871 5.42196C15.1318 5.34052 14.9348 5.2998 14.6962 5.2998H13.8667V10.1123H12.6365ZM17.7935 10.1123V5.74867H18.9668V6.51003H19.0123C19.0918 6.2392 19.2253 6.03465 19.4128 5.8964C19.6003 5.75624 19.8162 5.68617 20.0605 5.68617C20.1212 5.68617 20.1865 5.68996 20.2566 5.69753C20.3266 5.70511 20.3882 5.71552 20.4412 5.72878V6.80265C20.3844 6.7856 20.3058 6.77045 20.2054 6.75719C20.1051 6.74393 20.0132 6.7373 19.9299 6.7373C19.7518 6.7373 19.5927 6.77613 19.4526 6.85378C19.3143 6.92954 19.2045 7.0356 19.123 7.17196C19.0435 7.30833 19.0037 7.46552 19.0037 7.64355V10.1123H17.7935ZM22.8354 10.1975C22.3941 10.1975 22.0125 10.1038 21.6905 9.91628C21.3704 9.72689 21.1233 9.46363 20.949 9.12651C20.7748 8.78749 20.6877 8.3945 20.6877 7.94753C20.6877 7.49677 20.7748 7.10283 20.949 6.76571C21.1233 6.4267 21.3704 6.16344 21.6905 5.97594C22.0125 5.78655 22.3941 5.69185 22.8354 5.69185C23.2767 5.69185 23.6574 5.78655 23.9775 5.97594C24.2994 6.16344 24.5475 6.4267 24.7218 6.76571C24.896 7.10283 24.9831 7.49677 24.9831 7.94753C24.9831 8.3945 24.896 8.78749 24.7218 9.12651C24.5475 9.46363 24.2994 9.72689 23.9775 9.91628C23.6574 10.1038 23.2767 10.1975 22.8354 10.1975ZM22.8411 9.26003C23.0418 9.26003 23.2095 9.20321 23.3439 9.08958C23.4784 8.97405 23.5797 8.81685 23.6479 8.61799C23.718 8.41912 23.753 8.1928 23.753 7.93901C23.753 7.68522 23.718 7.4589 23.6479 7.26003C23.5797 7.06117 23.4784 6.90397 23.3439 6.78844C23.2095 6.67291 23.0418 6.61515 22.8411 6.61515C22.6384 6.61515 22.468 6.67291 22.3297 6.78844C22.1934 6.90397 22.0901 7.06117 22.0201 7.26003C21.9519 7.4589 21.9178 7.68522 21.9178 7.93901C21.9178 8.1928 21.9519 8.41912 22.0201 8.61799C22.0901 8.81685 22.1934 8.97405 22.3297 9.08958C22.468 9.20321 22.6384 9.26003 22.8411 9.26003Z" fill="#066ACE"/>
</g>
<defs>
<filter id="filter0_d_2578_641" x="0.708984" y="0.112305" width="36" height="19" filterUnits="userSpaceOnUse" color-interpolation-filters="sRGB">
<feFlood flood-opacity="0" result="BackgroundImageFix"/>
<feColorMatrix in="SourceAlpha" type="matrix" values="0 0 0 0 0 0 0 0 0 0 0 0 0 0 0 0 0 0 127 0" result="hardAlpha"/>
<feOffset dy="2"/>
<feGaussianBlur stdDeviation="2"/>
<feComposite in2="hardAlpha" operator="out"/>
<feColorMatrix type="matrix" values="0 0 0 0 0 0 0 0 0 0 0 0 0 0 0 0 0 0 0.25 0"/>
<feBlend mode="normal" in2="BackgroundImageFix" result="effect1_dropShadow_2578_641"/>
<feBlend mode="normal" in="SourceGraphic" in2="effect1_dropShadow_2578_641" result="shape"/>
</filter>
<filter id="filter1_i_2578_641" x="12.6367" y="4.29395" width="12.3457" height="9.90381" filterUnits="userSpaceOnUse" color-interpolation-filters="sRGB">
<feFlood flood-opacity="0" result="BackgroundImageFix"/>
<feBlend mode="normal" in="SourceGraphic" in2="BackgroundImageFix" result="shape"/>
<feColorMatrix in="SourceAlpha" type="matrix" values="0 0 0 0 0 0 0 0 0 0 0 0 0 0 0 0 0 0 127 0" result="hardAlpha"/>
<feOffset dy="4"/>
<feGaussianBlur stdDeviation="2"/>
<feComposite in2="hardAlpha" operator="arithmetic" k2="-1" k3="1"/>
<feColorMatrix type="matrix" values="0 0 0 0 0 0 0 0 0 0 0 0 0 0 0 0 0 0 0.5 0"/>
<feBlend mode="normal" in2="shape" result="effect1_innerShadow_2578_641"/>
</filter>
<linearGradient id="paint0_linear_2578_641" x1="18.709" y1="2.1123" x2="18.709" y2="13.1123" gradientUnits="userSpaceOnUse">
<stop stop-color="#2785DC"/>
<stop offset="0.365385" stop-color="#50A7EE"/>
<stop offset="0.649038" stop-color="#70CCF5"/>
<stop offset="1" stop-color="#A1FFFF"/>
</linearGradient>
</defs>
</svg>
