<svg width="32" height="32" viewBox="0 0 32 32" fill="none" xmlns="http://www.w3.org/2000/svg">
<rect width="32" height="32" rx="16" fill="#18254E"/>
<path d="M5.13672 18.6562V13.375H6.1875V18.6562H5.13672ZM3.02344 16.5391V15.4922H8.30469V16.5391H3.02344ZM12.0034 20.1094C11.467 20.1094 10.9878 20.0169 10.5659 19.832C10.1467 19.6471 9.81464 19.3906 9.56984 19.0625C9.32766 18.7318 9.19745 18.349 9.17922 17.9141H10.4058C10.4214 18.151 10.5008 18.3568 10.6441 18.5312C10.7899 18.7031 10.98 18.8359 11.2144 18.9297C11.4488 19.0234 11.7092 19.0703 11.9956 19.0703C12.3107 19.0703 12.5894 19.0156 12.8316 18.9062C13.0764 18.7969 13.2678 18.6445 13.4058 18.4492C13.5438 18.2513 13.6128 18.0234 13.6128 17.7656C13.6128 17.4974 13.5438 17.2617 13.4058 17.0586C13.2704 16.8529 13.0711 16.6914 12.8081 16.5742C12.5477 16.457 12.2326 16.3984 11.8628 16.3984H11.187V15.4141H11.8628C12.1597 15.4141 12.4201 15.3607 12.6441 15.2539C12.8706 15.1471 13.0477 14.9987 13.1753 14.8086C13.3029 14.6159 13.3667 14.3906 13.3667 14.1328C13.3667 13.8854 13.3107 13.6706 13.1988 13.4883C13.0894 13.3034 12.9331 13.1589 12.73 13.0547C12.5295 12.9505 12.2925 12.8984 12.0191 12.8984C11.7586 12.8984 11.5152 12.9466 11.2886 13.043C11.0646 13.1367 10.8823 13.2721 10.7417 13.4492C10.6011 13.6237 10.5256 13.8333 10.5152 14.0781H9.34719C9.36021 13.6458 9.48781 13.2656 9.73 12.9375C9.97479 12.6094 10.2977 12.3529 10.6988 12.168C11.0998 11.9831 11.5451 11.8906 12.0347 11.8906C12.5477 11.8906 12.9904 11.9909 13.3628 12.1914C13.7378 12.3893 14.0269 12.6536 14.23 12.9844C14.4357 13.3151 14.5373 13.6771 14.5347 14.0703C14.5373 14.5182 14.4123 14.8984 14.1597 15.2109C13.9097 15.5234 13.5764 15.7331 13.1597 15.8398V15.9023C13.6909 15.9831 14.1024 16.194 14.3941 16.5352C14.6883 16.8763 14.8342 17.2995 14.8316 17.8047C14.8342 18.2448 14.7118 18.6393 14.4644 18.9883C14.2196 19.3372 13.8849 19.612 13.4605 19.8125C13.036 20.0104 12.5503 20.1094 12.0034 20.1094ZM18.3233 20.1328C17.7061 20.1302 17.1788 19.9674 16.7413 19.6445C16.3038 19.3216 15.9691 18.8516 15.7373 18.2344C15.5056 17.6172 15.3897 16.8737 15.3897 16.0039C15.3897 15.1367 15.5056 14.3958 15.7373 13.7812C15.9717 13.1667 16.3077 12.6979 16.7452 12.375C17.1853 12.0521 17.7113 11.8906 18.3233 11.8906C18.9353 11.8906 19.46 12.0534 19.8975 12.3789C20.335 12.7018 20.6696 13.1706 20.9014 13.7852C21.1358 14.3971 21.253 15.1367 21.253 16.0039C21.253 16.8763 21.1371 17.6211 20.9053 18.2383C20.6735 18.8529 20.3389 19.3229 19.9014 19.6484C19.4639 19.9714 18.9379 20.1328 18.3233 20.1328ZM18.3233 19.0898C18.8649 19.0898 19.2881 18.8255 19.5928 18.2969C19.9001 17.7682 20.0538 17.0039 20.0538 16.0039C20.0538 15.3398 19.9834 14.7786 19.8428 14.3203C19.7048 13.8594 19.5056 13.5104 19.2452 13.2734C18.9873 13.0339 18.6801 12.9141 18.3233 12.9141C17.7842 12.9141 17.361 13.1797 17.0538 13.7109C16.7465 14.2422 16.5915 15.0065 16.5889 16.0039C16.5889 16.6706 16.6579 17.2344 16.7959 17.6953C16.9366 18.1536 17.1358 18.5013 17.3936 18.7383C17.6514 18.9727 17.9613 19.0898 18.3233 19.0898ZM24.6539 20.1328C24.0367 20.1302 23.5093 19.9674 23.0718 19.6445C22.6343 19.3216 22.2997 18.8516 22.0679 18.2344C21.8362 17.6172 21.7203 16.8737 21.7203 16.0039C21.7203 15.1367 21.8362 14.3958 22.0679 13.7812C22.3023 13.1667 22.6382 12.6979 23.0757 12.375C23.5158 12.0521 24.0419 11.8906 24.6539 11.8906C25.2658 11.8906 25.7906 12.0534 26.2281 12.3789C26.6656 12.7018 27.0002 13.1706 27.232 13.7852C27.4664 14.3971 27.5836 15.1367 27.5836 16.0039C27.5836 16.8763 27.4677 17.6211 27.2359 18.2383C27.0041 18.8529 26.6695 19.3229 26.232 19.6484C25.7945 19.9714 25.2685 20.1328 24.6539 20.1328ZM24.6539 19.0898C25.1955 19.0898 25.6187 18.8255 25.9234 18.2969C26.2307 17.7682 26.3843 17.0039 26.3843 16.0039C26.3843 15.3398 26.314 14.7786 26.1734 14.3203C26.0354 13.8594 25.8362 13.5104 25.5757 13.2734C25.3179 13.0339 25.0106 12.9141 24.6539 12.9141C24.1148 12.9141 23.6916 13.1797 23.3843 13.7109C23.077 14.2422 22.9221 15.0065 22.9195 16.0039C22.9195 16.6706 22.9885 17.2344 23.1265 17.6953C23.2671 18.1536 23.4664 18.5013 23.7242 18.7383C23.982 18.9727 24.2919 19.0898 24.6539 19.0898Z" fill="white"/>
</svg>
