<svg width="13" height="13" viewBox="0 0 13 13" fill="none" xmlns="http://www.w3.org/2000/svg">
<path d="M12.709 12.1123H0.708984V11.0012C0.708984 9.9698 1.15147 8.98064 1.93912 8.25133C2.72678 7.52202 3.79508 7.1123 4.90898 7.1123H8.50898C9.62289 7.1123 10.6912 7.52202 11.4788 8.25133C12.2665 8.98064 12.709 9.9698 12.709 11.0012V12.1123ZM1.90898 11.0012H11.509C11.509 10.2645 11.1929 9.55794 10.6303 9.03701C10.0677 8.51607 9.30463 8.22342 8.50898 8.22342H4.90898C4.11334 8.22342 3.35028 8.51607 2.78767 9.03701C2.22506 9.55794 1.90898 10.2645 1.90898 11.0012Z" fill="#F9F8F6"/>
<path d="M6.70899 6.1123C6.11564 6.1123 5.53563 5.93636 5.04229 5.60671C4.54894 5.27707 4.16442 4.80853 3.93735 4.26036C3.71029 3.71218 3.65087 3.10898 3.76663 2.52703C3.88238 1.94509 4.16811 1.41054 4.58767 0.990986C5.00723 0.571429 5.54176 0.285706 6.12371 0.16995C6.70565 0.0541948 7.30884 0.113604 7.85702 0.340667C8.4052 0.567729 8.87375 0.952248 9.20339 1.4456C9.53304 1.93894 9.70898 2.51896 9.70898 3.11231C9.70898 3.90796 9.39291 4.67102 8.8303 5.23363C8.26769 5.79623 7.50463 6.1123 6.70899 6.1123ZM6.70899 1.31231C6.35298 1.31231 6.00498 1.41787 5.70897 1.61566C5.41296 1.81345 5.18222 2.09457 5.04598 2.42347C4.90975 2.75238 4.8741 3.1143 4.94356 3.46347C5.01301 3.81263 5.18445 4.13336 5.43618 4.3851C5.68792 4.63683 6.00866 4.80827 6.35783 4.87772C6.70699 4.94717 7.06892 4.91153 7.39783 4.77529C7.72673 4.63905 8.00783 4.40834 8.20562 4.11233C8.4034 3.81632 8.50898 3.46831 8.50898 3.11231C8.50898 2.63492 8.31935 2.17708 7.98179 1.83951C7.64422 1.50195 7.18637 1.31231 6.70899 1.31231Z" fill="#F9F8F6"/>
<rect x="1.70898" y="8.1123" width="10" height="4" rx="1" fill="#F9F8F6"/>
<circle cx="6.70898" cy="3.1123" r="2" fill="#F9F8F6"/>
</svg>
