<svg width="18" height="18" viewBox="0 0 18 18" fill="none" xmlns="http://www.w3.org/2000/svg">
<path fill-rule="evenodd" clip-rule="evenodd" d="M4.5 15H6.4875L7.95 16.4437C8.101 16.5812 8.26675 16.6875 8.44725 16.7625C8.62775 16.8375 8.812 16.875 9 16.875C9.188 16.875 9.3725 16.8375 9.5535 16.7625C9.7345 16.6875 9.9 16.5812 10.05 16.4437L11.5125 15H13.5C13.913 15.0005 14.2662 14.8537 14.5597 14.5597C14.8532 14.2657 15 13.9125 15 13.5V11.5125L16.4437 10.05C16.5812 9.901 16.6875 9.7355 16.7625 9.5535C16.8375 9.3715 16.875 9.187 16.875 9C16.875 8.813 16.8375 8.62875 16.7625 8.44725C16.6875 8.26575 16.5812 8.1 16.4437 7.95L15 6.4875V4.5C15.0005 4.088 14.8537 3.735 14.5597 3.441C14.2657 3.147 13.9125 3 13.5 3H11.5125L10.05 1.55625C9.901 1.41875 9.7355 1.3125 9.5535 1.2375C9.3715 1.1625 9.187 1.125 9 1.125C8.813 1.125 8.62875 1.1625 8.44725 1.2375C8.26575 1.3125 8.1 1.41875 7.95 1.55625L6.4875 3H4.5C4.088 3.0005 3.735 3.1475 3.441 3.441C3.147 3.7345 3 4.0875 3 4.5V6.4875L1.55625 7.95C1.41875 8.101 1.3125 8.26675 1.2375 8.44725C1.1625 8.62775 1.125 8.812 1.125 9C1.125 9.188 1.1625 9.3725 1.2375 9.5535C1.3125 9.7345 1.41875 9.9 1.55625 10.05L3 11.5125V13.5C3.0005 13.913 3.1475 14.2662 3.441 14.5597C3.7345 14.8532 4.0875 15 4.5 15ZM9.20711 11.4571L12.9571 7.70711L11.5429 6.29289L8.5 9.33579L6.70711 7.54289L5.29289 8.95711L7.79289 11.4571L8.5 12.1642L9.20711 11.4571Z" fill="#0066FF"/>
</svg>
