<svg width="24" height="24" viewBox="0 0 24 24" fill="none" xmlns="http://www.w3.org/2000/svg">
<path d="M4.26 4.26C3 5.532 3 7.566 3 11.64V12.36C3 16.428 3 18.462 4.26 19.74C5.532 21 7.566 21 11.64 21H12.36C16.428 21 18.462 21 19.74 19.74C21 18.468 21 16.434 21 12.36V11.64C21 7.572 21 5.538 19.74 4.26C18.468 3 16.434 3 12.36 3H11.64C7.572 3 5.538 3 4.26 4.26ZM6.036 8.478H8.1C8.166 11.91 9.678 13.362 10.878 13.662V8.478H12.816V11.436C13.998 11.31 15.246 9.96 15.666 8.472H17.598C17.4404 9.24222 17.1256 9.97167 16.6735 10.6148C16.2213 11.258 15.6414 11.801 14.97 12.21C15.7194 12.5829 16.3813 13.1104 16.9118 13.7579C17.4424 14.4053 17.8297 15.1579 18.048 15.966H15.918C15.462 14.544 14.322 13.44 12.816 13.29V15.966H12.576C8.472 15.966 6.132 13.158 6.036 8.478Z" fill="#18254E"/>
</svg>
