<svg width="24" height="24" viewBox="0 0 24 24" fill="none" xmlns="http://www.w3.org/2000/svg">
<path d="M22.5146 6.50544C22.3885 6.02113 22.1423 5.57961 21.8006 5.22485C21.459 4.87009 21.0338 4.61448 20.5674 4.48348C18.86 4 11.9889 4 11.9889 4C11.9889 4 5.11749 4.01467 3.41034 4.49815C2.94399 4.62918 2.51883 4.8848 2.17721 5.23955C1.8356 5.59431 1.58944 6.03582 1.46327 6.52011C0.946834 9.67042 0.746476 14.4704 1.4774 17.4946C1.60357 17.9789 1.84973 18.4204 2.19134 18.7751C2.53296 19.1299 2.95812 19.3855 3.42447 19.5165C5.13176 20 12.003 20 12.003 20C12.003 20 18.8743 20 20.5816 19.5165C21.0479 19.3855 21.4731 19.1299 21.8147 18.7751C22.1563 18.4204 22.4025 17.9789 22.5286 17.4946C23.0732 14.3399 23.2411 9.54284 22.5145 6.50558" fill="#FF0000"/>
<path d="M9.80273 15.4286L15.5029 12.0001L9.80273 8.57141V15.4286Z" fill="white"/>
</svg>
