<svg width="21" height="20" viewBox="0 0 21 20" fill="none" xmlns="http://www.w3.org/2000/svg">
<path d="M3.6543 1.5C2.48069 1.5 1.5293 2.76853 1.5293 4.33333V5.75H18.5293V4.33333C18.5293 2.76853 17.5779 1.5 16.4043 1.5H3.6543Z" fill="#969EA7"/>
<path fill-rule="evenodd" clip-rule="evenodd" d="M18.5293 8.58333H1.5293V15.6667C1.5293 17.2315 2.48069 18.5 3.6543 18.5H16.4043C17.5779 18.5 18.5293 17.2315 18.5293 15.6667V8.58333ZM3.6543 14.25C3.6543 13.4676 4.12999 12.8333 4.7168 12.8333H5.7793C6.3661 12.8333 6.8418 13.4676 6.8418 14.25C6.8418 15.0324 6.3661 15.6667 5.7793 15.6667H4.7168C4.12999 15.6667 3.6543 15.0324 3.6543 14.25ZM8.9668 12.8333C8.37999 12.8333 7.9043 13.4676 7.9043 14.25C7.9043 15.0324 8.37999 15.6667 8.9668 15.6667H10.0293C10.6161 15.6667 11.0918 15.0324 11.0918 14.25C11.0918 13.4676 10.6161 12.8333 10.0293 12.8333H8.9668Z" fill="#969EA7"/>
<rect x="3.10938" y="12.6641" width="9.65039" height="3.75464" fill="#FEF9F6"/>
<rect x="1.5293" y="5.72217" width="16.998" height="2.8623" fill="#FEF9F6"/>
</svg>
