<svg width="21" height="21" viewBox="0 0 21 21" fill="none" xmlns="http://www.w3.org/2000/svg">
<path d="M3.6543 2.47314C2.48069 2.47314 1.5293 3.74167 1.5293 5.30648V6.72314H18.5293V5.30648C18.5293 3.74167 17.5779 2.47314 16.4043 2.47314H3.6543Z" fill="#18254E"/>
<path fill-rule="evenodd" clip-rule="evenodd" d="M18.5293 9.55648H1.5293V16.6398C1.5293 18.2046 2.48069 19.4731 3.6543 19.4731H16.4043C17.5779 19.4731 18.5293 18.2046 18.5293 16.6398V9.55648ZM3.6543 15.2231C3.6543 14.4407 4.12999 13.8065 4.7168 13.8065H5.7793C6.3661 13.8065 6.8418 14.4407 6.8418 15.2231C6.8418 16.0055 6.3661 16.6398 5.7793 16.6398H4.7168C4.12999 16.6398 3.6543 16.0055 3.6543 15.2231ZM8.9668 13.8065C8.37999 13.8065 7.9043 14.4407 7.9043 15.2231C7.9043 16.0055 8.37999 16.6398 8.9668 16.6398H10.0293C10.6161 16.6398 11.0918 16.0055 11.0918 15.2231C11.0918 14.4407 10.6161 13.8065 10.0293 13.8065H8.9668Z" fill="#18254E"/>
<rect x="3.10938" y="13.6367" width="9.65039" height="3.75464" fill="url(#paint0_linear_2766_1182)"/>
<rect x="1.5293" y="6.69531" width="16.998" height="2.8623" fill="url(#paint1_linear_2766_1182)"/>
<defs>
<linearGradient id="paint0_linear_2766_1182" x1="7.93457" y1="13.6367" x2="7.93457" y2="17.3914" gradientUnits="userSpaceOnUse">
<stop stop-color="#278DFF"/>
<stop offset="1" stop-color="#66CDFF"/>
</linearGradient>
<linearGradient id="paint1_linear_2766_1182" x1="10.0283" y1="6.69531" x2="10.0283" y2="9.55762" gradientUnits="userSpaceOnUse">
<stop stop-color="#278DFF"/>
<stop offset="1" stop-color="#66CDFF"/>
</linearGradient>
</defs>
</svg>
