<svg width="21" height="21" viewBox="0 0 21 21" fill="none" xmlns="http://www.w3.org/2000/svg">
<rect x="5.2832" y="6.27637" width="9.93295" height="9.72076" fill="url(#paint0_linear_2766_1188)"/>
<path d="M10.0586 2.47363C12.6988 2.47363 14.0192 2.47294 15.0605 2.9043C16.449 3.47946 17.5518 4.58317 18.127 5.97168C18.5582 7.01306 18.5586 8.33335 18.5586 10.9736C18.5586 13.614 18.5583 14.9342 18.127 15.9756C17.5519 17.364 16.4488 18.4668 15.0605 19.042C14.0192 19.4734 12.6988 19.4736 10.0586 19.4736H7.22559C4.55432 19.4736 3.21853 19.4735 2.38867 18.6436C1.55888 17.8137 1.55859 16.478 1.55859 13.8066V10.9736C1.55859 8.3333 1.55894 7.01307 1.99023 5.97168C2.56536 4.58313 3.66816 3.47945 5.05664 2.9043C6.09799 2.47295 7.41831 2.47363 10.0586 2.47363ZM7.22461 11.8613C6.67264 11.8613 6.22512 12.3095 6.22461 12.8613C6.22461 13.4136 6.67232 13.8613 7.22461 13.8613H10.0576C10.6099 13.8613 11.0576 13.4136 11.0576 12.8613C11.0571 12.3095 10.6096 11.8613 10.0576 11.8613H7.22461ZM7.22461 8.08301C6.67263 8.08301 6.22511 8.53115 6.22461 9.08301C6.22461 9.63529 6.67232 10.083 7.22461 10.083H12.8916C13.4437 10.0828 13.8916 9.63517 13.8916 9.08301C13.8911 8.53128 13.4434 8.08321 12.8916 8.08301H7.22461Z" fill="#18254E"/>
<defs>
<linearGradient id="paint0_linear_2766_1188" x1="10.2497" y1="6.27637" x2="10.2497" y2="15.9971" gradientUnits="userSpaceOnUse">
<stop stop-color="#2B91FF"/>
<stop offset="1" stop-color="#5EC4FF"/>
</linearGradient>
</defs>
</svg>
