<svg width="21" height="20" viewBox="0 0 21 20" fill="none" xmlns="http://www.w3.org/2000/svg">
<rect x="5.2832" y="5.30322" width="9.93295" height="9.72076" fill="#FEF9F6"/>
<path d="M10.0586 1.50049C12.6988 1.50049 14.0192 1.49979 15.0605 1.93115C16.449 2.50632 17.5518 3.61002 18.127 4.99854C18.5582 6.03992 18.5586 7.36021 18.5586 10.0005C18.5586 12.6408 18.5583 13.9611 18.127 15.0024C17.5519 16.3908 16.4488 17.4937 15.0605 18.0688C14.0192 18.5002 12.6988 18.5005 10.0586 18.5005H7.22559C4.55432 18.5005 3.21853 18.5003 2.38867 17.6704C1.55888 16.8405 1.55859 15.5048 1.55859 12.8335V10.0005C1.55859 7.36016 1.55894 6.03993 1.99023 4.99854C2.56536 3.60999 3.66816 2.50631 5.05664 1.93115C6.09799 1.4998 7.41831 1.50049 10.0586 1.50049ZM7.22461 10.8882C6.67264 10.8882 6.22512 11.3363 6.22461 11.8882C6.22461 12.4405 6.67232 12.8882 7.22461 12.8882H10.0576C10.6099 12.8882 11.0576 12.4405 11.0576 11.8882C11.0571 11.3363 10.6096 10.8882 10.0576 10.8882H7.22461ZM7.22461 7.10986C6.67263 7.10986 6.22511 7.558 6.22461 8.10986C6.22461 8.66215 6.67232 9.10986 7.22461 9.10986H12.8916C13.4437 9.10966 13.8916 8.66202 13.8916 8.10986C13.8911 7.55813 13.4434 7.11007 12.8916 7.10986H7.22461Z" fill="#969EA7"/>
</svg>
