<svg width="20" height="20" viewBox="0 0 20 20" fill="none" xmlns="http://www.w3.org/2000/svg">
<g clip-path="url(#clip0_2766_1148)">
<rect x="1.69141" y="7.91748" width="16.6094" height="2.62598" fill="#D9D9D9"/>
<path d="M1.66602 7.49984C1.66602 6.25368 1.66602 5.63061 1.93396 5.1665C2.1095 4.86247 2.36198 4.60999 2.66602 4.43445C3.13012 4.1665 3.75319 4.1665 4.99935 4.1665H14.9993C16.2455 4.1665 16.8686 4.1665 17.3327 4.43445C17.6367 4.60999 17.8892 4.86247 18.0647 5.1665C18.3327 5.63061 18.3327 6.25368 18.3327 7.49984V7.49984C18.3327 7.81138 18.3327 7.96715 18.2657 8.08317C18.2218 8.15918 18.1587 8.2223 18.0827 8.26618C17.9667 8.33317 17.8109 8.33317 17.4993 8.33317H2.49935C2.18781 8.33317 2.03204 8.33317 1.91602 8.26618C1.84001 8.2223 1.77689 8.15918 1.733 8.08317C1.66602 7.96715 1.66602 7.81138 1.66602 7.49984V7.49984Z" fill="#969EA7"/>
<path d="M17.334 10C17.8052 10 18.041 10.0002 18.1875 10.1465C18.3339 10.2929 18.334 10.5286 18.334 11V14.333C18.334 16.2186 18.3338 17.1613 17.748 17.7471C17.1623 18.3329 16.2196 18.333 14.334 18.333H5.66797C3.78235 18.333 2.83969 18.3329 2.25391 17.7471C1.66812 17.1613 1.66797 16.2186 1.66797 14.333V11C1.66797 10.5286 1.66801 10.2929 1.81445 10.1465C1.96091 10.0002 2.19674 10 2.66797 10H17.334ZM6.66797 15C6.35643 15 6.20001 15.0004 6.08398 15.0674C6.00817 15.1113 5.94517 15.1741 5.90137 15.25C5.8344 15.366 5.83398 15.5217 5.83398 15.833C5.83398 16.1445 5.83438 16.301 5.90137 16.417C5.94519 16.4928 6.00819 16.5558 6.08398 16.5996C6.20001 16.6666 6.35643 16.667 6.66797 16.667H8.33398C8.64552 16.667 8.80194 16.6666 8.91797 16.5996C8.99376 16.5558 9.05676 16.4928 9.10059 16.417C9.16757 16.301 9.16797 16.1445 9.16797 15.833C9.16797 15.5217 9.16755 15.366 9.10059 15.25C9.05678 15.1741 8.99378 15.1113 8.91797 15.0674C8.80194 15.0004 8.64552 15 8.33398 15H6.66797ZM11.668 15C11.3564 15 11.2 15.0004 11.084 15.0674C11.0082 15.1113 10.9452 15.1741 10.9014 15.25C10.8344 15.366 10.834 15.5217 10.834 15.833C10.834 16.1445 10.8344 16.301 10.9014 16.417C10.9452 16.4928 11.0082 16.5558 11.084 16.5996C11.2 16.6666 11.3564 16.667 11.668 16.667H13.334C13.6455 16.667 13.8019 16.6666 13.918 16.5996C13.9938 16.5558 14.0568 16.4928 14.1006 16.417C14.1676 16.301 14.168 16.1445 14.168 15.833C14.168 15.5217 14.1675 15.366 14.1006 15.25C14.0568 15.1741 13.9938 15.1113 13.918 15.0674C13.8019 15.0004 13.6455 15 13.334 15H11.668ZM6.66797 11.667C6.35643 11.667 6.20001 11.6664 6.08398 11.7334C6.00803 11.7773 5.94523 11.841 5.90137 11.917C5.8345 12.033 5.83398 12.1887 5.83398 12.5C5.83398 12.8113 5.8345 12.967 5.90137 13.083C5.94523 13.159 6.00803 13.2227 6.08398 13.2666C6.20001 13.3336 6.35643 13.333 6.66797 13.333H8.33398C8.64552 13.333 8.80194 13.3336 8.91797 13.2666C8.99392 13.2227 9.05673 13.159 9.10059 13.083C9.16745 12.967 9.16797 12.8113 9.16797 12.5C9.16797 12.1887 9.16745 12.033 9.10059 11.917C9.05673 11.841 8.99392 11.7773 8.91797 11.7334C8.80194 11.6664 8.64552 11.667 8.33398 11.667H6.66797ZM11.668 11.667C11.3564 11.667 11.2 11.6664 11.084 11.7334C11.008 11.7773 10.9452 11.841 10.9014 11.917C10.8345 12.033 10.834 12.1887 10.834 12.5C10.834 12.8113 10.8345 12.967 10.9014 13.083C10.9452 13.159 11.008 13.2227 11.084 13.2666C11.2 13.3336 11.3564 13.333 11.668 13.333H13.334C13.6455 13.333 13.8019 13.3336 13.918 13.2666C13.9939 13.2227 14.0567 13.159 14.1006 13.083C14.1675 12.967 14.168 12.8113 14.168 12.5C14.168 12.1887 14.1674 12.033 14.1006 11.917C14.0567 11.841 13.9939 11.7773 13.918 11.7334C13.8019 11.6664 13.6455 11.667 13.334 11.667H11.668Z" fill="#969EA7"/>
<path d="M5.83398 2.5L5.83398 5" stroke="#969EA7" stroke-width="2" stroke-linecap="round"/>
<path d="M14.166 2.5L14.166 5" stroke="#969EA7" stroke-width="2" stroke-linecap="round"/>
<rect x="5.56641" y="11.5146" width="3.82031" height="2" rx="1" fill="#FEF9F6"/>
<rect x="10.6133" y="11.5146" width="3.82031" height="2" rx="1" fill="#FEF9F6"/>
<rect x="5.56641" y="14.8628" width="3.82031" height="2" rx="1" fill="#FEF9F6"/>
<rect x="10.6133" y="14.8628" width="3.82031" height="2" rx="1" fill="#FEF9F6"/>
</g>
<defs>
<clipPath id="clip0_2766_1148">
<rect width="20" height="20" fill="white"/>
</clipPath>
</defs>
</svg>
