<svg width="20" height="21" viewBox="0 0 20 21" fill="none" xmlns="http://www.w3.org/2000/svg">
<g clip-path="url(#clip0_2766_1196)">
<rect x="1.69141" y="8.89062" width="16.6094" height="2.62598" fill="url(#paint0_linear_2766_1196)"/>
<path d="M1.66602 8.47298C1.66602 7.22683 1.66602 6.60375 1.93396 6.13965C2.1095 5.83561 2.36198 5.58313 2.66602 5.4076C3.13012 5.13965 3.75319 5.13965 4.99935 5.13965H14.9993C16.2455 5.13965 16.8686 5.13965 17.3327 5.4076C17.6367 5.58313 17.8892 5.83561 18.0647 6.13965C18.3327 6.60375 18.3327 7.22683 18.3327 8.47298C18.3327 8.78452 18.3327 8.94029 18.2657 9.05632C18.2218 9.13232 18.1587 9.19544 18.0827 9.23933C17.9667 9.30632 17.8109 9.30632 17.4993 9.30632H2.49935C2.18781 9.30632 2.03204 9.30632 1.91602 9.23933C1.84001 9.19544 1.77689 9.13232 1.733 9.05632C1.66602 8.94029 1.66602 8.78452 1.66602 8.47298Z" fill="#18254E"/>
<path d="M17.334 10.9731C17.8052 10.9731 18.041 10.9733 18.1875 11.1196C18.3339 11.2661 18.334 11.5017 18.334 11.9731V15.3062C18.334 17.1918 18.3338 18.1344 17.748 18.7202C17.1623 19.306 16.2196 19.3062 14.334 19.3062H5.66797C3.78235 19.3062 2.83969 19.306 2.25391 18.7202C1.66812 18.1344 1.66797 17.1918 1.66797 15.3062V11.9731C1.66797 11.5017 1.66801 11.2661 1.81445 11.1196C1.96091 10.9733 2.19674 10.9731 2.66797 10.9731H17.334ZM6.66797 15.9731C6.35643 15.9731 6.20001 15.9735 6.08398 16.0405C6.00817 16.0844 5.94517 16.1473 5.90137 16.2231C5.8344 16.3391 5.83398 16.4948 5.83398 16.8062C5.83398 17.1177 5.83438 17.2741 5.90137 17.3901C5.94519 17.4659 6.00819 17.5289 6.08398 17.5728C6.20001 17.6397 6.35643 17.6401 6.66797 17.6401H8.33398C8.64552 17.6401 8.80194 17.6397 8.91797 17.5728C8.99376 17.5289 9.05676 17.4659 9.10059 17.3901C9.16757 17.2741 9.16797 17.1177 9.16797 16.8062C9.16797 16.4948 9.16755 16.3391 9.10059 16.2231C9.05678 16.1473 8.99378 16.0844 8.91797 16.0405C8.80194 15.9735 8.64552 15.9731 8.33398 15.9731H6.66797ZM11.668 15.9731C11.3564 15.9731 11.2 15.9735 11.084 16.0405C11.0082 16.0844 10.9452 16.1473 10.9014 16.2231C10.8344 16.3391 10.834 16.4948 10.834 16.8062C10.834 17.1177 10.8344 17.2741 10.9014 17.3901C10.9452 17.4659 11.0082 17.5289 11.084 17.5728C11.2 17.6397 11.3564 17.6401 11.668 17.6401H13.334C13.6455 17.6401 13.8019 17.6397 13.918 17.5728C13.9938 17.5289 14.0568 17.4659 14.1006 17.3901C14.1676 17.2741 14.168 17.1177 14.168 16.8062C14.168 16.4948 14.1676 16.3391 14.1006 16.2231C14.0568 16.1473 13.9938 16.0844 13.918 16.0405C13.8019 15.9735 13.6455 15.9731 13.334 15.9731H11.668ZM6.66797 12.6401C6.35643 12.6401 6.20001 12.6396 6.08398 12.7065C6.00803 12.7504 5.94523 12.8142 5.90137 12.8901C5.8345 13.0061 5.83398 13.1618 5.83398 13.4731C5.83398 13.7845 5.8345 13.9401 5.90137 14.0562C5.94523 14.1321 6.00803 14.1959 6.08398 14.2397C6.20001 14.3067 6.35643 14.3062 6.66797 14.3062H8.33398C8.64552 14.3062 8.80194 14.3067 8.91797 14.2397C8.99392 14.1959 9.05673 14.1321 9.10059 14.0562C9.16745 13.9401 9.16797 13.7845 9.16797 13.4731C9.16797 13.1618 9.16745 13.0061 9.10059 12.8901C9.05673 12.8142 8.99392 12.7504 8.91797 12.7065C8.80194 12.6396 8.64552 12.6401 8.33398 12.6401H6.66797ZM11.668 12.6401C11.3564 12.6401 11.2 12.6396 11.084 12.7065C11.008 12.7504 10.9452 12.8142 10.9014 12.8901C10.8345 13.0061 10.834 13.1618 10.834 13.4731C10.834 13.7845 10.8345 13.9401 10.9014 14.0562C10.9452 14.1321 11.008 14.1959 11.084 14.2397C11.2 14.3067 11.3564 14.3062 11.668 14.3062H13.334C13.6455 14.3062 13.8019 14.3067 13.918 14.2397C13.9939 14.1959 14.0567 14.1321 14.1006 14.0562C14.1674 13.9401 14.168 13.7845 14.168 13.4731C14.168 13.1618 14.1674 13.0061 14.1006 12.8901C14.0567 12.8142 13.9939 12.7504 13.918 12.7065C13.8019 12.6396 13.6455 12.6401 13.334 12.6401H11.668Z" fill="#18254E"/>
<path d="M5.83398 3.47314L5.83398 5.97314" stroke="#18254E" stroke-width="2" stroke-linecap="round"/>
<path d="M14.166 3.47314L14.166 5.97314" stroke="#18254E" stroke-width="2" stroke-linecap="round"/>
<rect x="5.56641" y="12.4878" width="3.82031" height="2" rx="1" fill="url(#paint1_linear_2766_1196)"/>
<rect x="10.6133" y="12.4878" width="3.82031" height="2" rx="1" fill="url(#paint2_linear_2766_1196)"/>
<rect x="5.56641" y="15.8359" width="3.82031" height="2" rx="1" fill="url(#paint3_linear_2766_1196)"/>
<rect x="10.6133" y="15.8359" width="3.82031" height="2" rx="1" fill="url(#paint4_linear_2766_1196)"/>
</g>
<defs>
<linearGradient id="paint0_linear_2766_1196" x1="9.99609" y1="8.89062" x2="9.99609" y2="11.5166" gradientUnits="userSpaceOnUse">
<stop stop-color="#2A90FF"/>
<stop offset="1" stop-color="#64CBFF"/>
</linearGradient>
<linearGradient id="paint1_linear_2766_1196" x1="7.47656" y1="12.4878" x2="7.47656" y2="14.4878" gradientUnits="userSpaceOnUse">
<stop stop-color="#2A90FF"/>
<stop offset="1" stop-color="#62C9FF"/>
</linearGradient>
<linearGradient id="paint2_linear_2766_1196" x1="12.5234" y1="12.4878" x2="12.5234" y2="14.4878" gradientUnits="userSpaceOnUse">
<stop stop-color="#2A90FF"/>
<stop offset="1" stop-color="#62C9FF"/>
</linearGradient>
<linearGradient id="paint3_linear_2766_1196" x1="7.47656" y1="15.8359" x2="7.47656" y2="17.8359" gradientUnits="userSpaceOnUse">
<stop stop-color="#2A90FF"/>
<stop offset="1" stop-color="#62C9FF"/>
</linearGradient>
<linearGradient id="paint4_linear_2766_1196" x1="12.5234" y1="15.8359" x2="12.5234" y2="17.8359" gradientUnits="userSpaceOnUse">
<stop stop-color="#2A90FF"/>
<stop offset="1" stop-color="#62C9FF"/>
</linearGradient>
<clipPath id="clip0_2766_1196">
<rect width="20" height="20" fill="white" transform="translate(0 0.973145)"/>
</clipPath>
</defs>
</svg>
