<svg width="21" height="21" viewBox="0 0 21 21" fill="none" xmlns="http://www.w3.org/2000/svg">
<rect x="4.48438" y="6.15723" width="11.6548" height="5.86952" fill="url(#paint0_linear_2766_1203)"/>
<rect x="4.32031" y="12.0269" width="12.0773" height="5.86952" fill="url(#paint1_linear_2766_1203)"/>
<g clip-path="url(#clip0_2766_1203)">
<path d="M16.3396 17.7231C15.2971 17.7231 14.2546 17.3706 13.3396 16.7331C11.5096 18.0156 9.16964 18.0156 7.33964 16.7331C6.42464 17.3706 5.38214 17.7231 4.33964 17.7231H2.83964V19.2231H4.33964C5.37464 19.2231 6.39464 18.9606 7.33964 18.4806C9.22964 19.4481 11.4496 19.4481 13.3396 18.4806C14.2846 18.9681 15.3046 19.2231 16.3396 19.2231H17.8396V17.7231H16.3396ZM4.30214 16.2231H4.33964C5.53964 16.2231 6.60464 15.5631 7.33964 14.7231C8.07464 15.5631 9.13964 16.2231 10.3396 16.2231C11.5396 16.2231 12.6046 15.5631 13.3396 14.7231C14.0746 15.5631 15.1396 16.2231 16.3396 16.2231H16.3771L17.7946 11.2131C17.8546 11.0181 17.8396 10.8081 17.7496 10.6281C17.6596 10.4481 17.4946 10.3131 17.2996 10.2531L16.3396 9.93814V6.47314C16.3396 5.64814 15.6646 4.97314 14.8396 4.97314H12.5896V2.72314H8.08964V4.97314H5.83964C5.01464 4.97314 4.33964 5.64814 4.33964 6.47314V9.93814L3.37214 10.2531C3.17714 10.3131 3.01214 10.4481 2.92214 10.6281C2.83214 10.8081 2.80964 11.0181 2.87714 11.2131L4.30214 16.2231ZM5.83964 6.47314H14.8396V9.45064L10.3396 7.97314L5.83964 9.45064V6.47314Z" fill="#18254E"/>
</g>
<defs>
<linearGradient id="paint0_linear_2766_1203" x1="10.3118" y1="6.15723" x2="10.3118" y2="12.0267" gradientUnits="userSpaceOnUse">
<stop stop-color="#2A90FF"/>
<stop offset="1" stop-color="#63C9FF"/>
</linearGradient>
<linearGradient id="paint1_linear_2766_1203" x1="10.3589" y1="12.0269" x2="10.3589" y2="17.8964" gradientUnits="userSpaceOnUse">
<stop stop-color="#2A90FF"/>
<stop offset="1" stop-color="#63C9FF"/>
</linearGradient>
<clipPath id="clip0_2766_1203">
<rect width="18" height="18" fill="white" transform="translate(1.33984 1.97314)"/>
</clipPath>
</defs>
</svg>
