<svg width="21" height="20" viewBox="0 0 21 20" fill="none" xmlns="http://www.w3.org/2000/svg">
<rect x="4.48438" y="5.18408" width="11.6548" height="5.86952" fill="#FEF9F6"/>
<rect x="4.32031" y="11.0537" width="12.0773" height="5.86952" fill="#FEF9F6"/>
<path d="M16.3396 16.75C15.2971 16.75 14.2546 16.3975 13.3396 15.76C11.5096 17.0425 9.16964 17.0425 7.33964 15.76C6.42464 16.3975 5.38214 16.75 4.33964 16.75H2.83964V18.25H4.33964C5.37464 18.25 6.39464 17.9875 7.33964 17.5075C9.22964 18.475 11.4496 18.475 13.3396 17.5075C14.2846 17.995 15.3046 18.25 16.3396 18.25H17.8396V16.75H16.3396ZM4.30214 15.25H4.33964C5.53964 15.25 6.60464 14.59 7.33964 13.75C8.07464 14.59 9.13964 15.25 10.3396 15.25C11.5396 15.25 12.6046 14.59 13.3396 13.75C14.0746 14.59 15.1396 15.25 16.3396 15.25H16.3771L17.7946 10.24C17.8546 10.045 17.8396 9.835 17.7496 9.655C17.6596 9.475 17.4946 9.34 17.2996 9.28L16.3396 8.965V5.5C16.3396 4.675 15.6646 4 14.8396 4H12.5896V1.75H8.08964V4H5.83964C5.01464 4 4.33964 4.675 4.33964 5.5V8.965L3.37214 9.28C3.17714 9.34 3.01214 9.475 2.92214 9.655C2.83214 9.835 2.80964 10.045 2.87714 10.24L4.30214 15.25ZM5.83964 5.5H14.8396V8.4775L10.3396 7L5.83964 8.4775V5.5Z" fill="#969EA7"/>
</svg>
