<svg width="20" height="21" viewBox="0 0 20 21" fill="none" xmlns="http://www.w3.org/2000/svg">
<path d="M3 12.5316C3 11.5225 3 11.018 3.22166 10.5872C3.44333 10.1565 3.8539 9.86321 4.67505 9.27668L8.83752 6.30348C9.39886 5.90253 9.67953 5.70205 10 5.70205C10.3205 5.70205 10.6011 5.90253 11.1625 6.30348L15.325 9.27668C16.1461 9.86321 16.5567 10.1565 16.7783 10.5872C17 11.018 17 11.5225 17 12.5316V17.4731C17 18.416 17 18.8874 16.7071 19.1803C16.4142 19.4731 15.9428 19.4731 15 19.4731H5C4.05719 19.4731 3.58579 19.4731 3.29289 19.1803C3 18.8874 3 18.416 3 17.4731V12.5316Z" fill="#18254E"/>
<path d="M1 10.8598C1 11.1266 1 11.2601 1.0841 11.3012C1.16819 11.3423 1.27352 11.2604 1.48418 11.0966L8.77212 5.42816C9.36197 4.96939 9.65689 4.74001 10 4.74001C10.3431 4.74001 10.638 4.96939 11.2279 5.42816L18.5158 11.0966C18.7265 11.2604 18.8318 11.3423 18.9159 11.3012C19 11.2601 19 11.1266 19 10.8598V10.4513C19 9.97096 19 9.73079 18.8983 9.52288C18.7966 9.31497 18.607 9.16751 18.2279 8.87261L11.2279 3.42816C10.638 2.96939 10.3431 2.74001 10 2.74001C9.65689 2.74001 9.36197 2.96939 8.77212 3.42816L1.77212 8.87261C1.39295 9.16751 1.20337 9.31497 1.10168 9.52288C1 9.73079 1 9.97096 1 10.4513V10.8598Z" fill="#18254E"/>
<path d="M10.5 13.4731H9.5C8.39543 13.4731 7.5 14.3686 7.5 15.4731V19.3231C7.5 19.406 7.56716 19.4731 7.65 19.4731H12.35C12.4328 19.4731 12.5 19.406 12.5 19.3231V15.4731C12.5 14.3686 11.6046 13.4731 10.5 13.4731Z" fill="url(#paint0_linear_2766_1209)"/>
<path d="M3.02344 11.8713C3.20222 11.5576 4.32933 10.2727 7.4082 7.64153L10.3691 6.38221L15.692 9.97959L16.9991 13.3471L16.9466 9.48619L16.8396 9.40955L10.1183 4.38281L3.02344 9.37882V11.8713Z" fill="#18254E"/>
<defs>
<linearGradient id="paint0_linear_2766_1209" x1="10" y1="13.4731" x2="10" y2="19.4731" gradientUnits="userSpaceOnUse">
<stop stop-color="#248AFF"/>
<stop offset="1" stop-color="#69D0FF"/>
</linearGradient>
</defs>
</svg>
