<svg width="20" height="20" viewBox="0 0 20 20" fill="none" xmlns="http://www.w3.org/2000/svg">
<path d="M3 11.5585C3 10.5494 3 10.0448 3.22166 9.61407C3.44333 9.18334 3.8539 8.89007 4.67505 8.30354L8.83752 5.33034C9.39886 4.92938 9.67953 4.7289 10 4.7289C10.3205 4.7289 10.6011 4.92938 11.1625 5.33034L15.325 8.30354C16.1461 8.89007 16.5567 9.18334 16.7783 9.61407C17 10.0448 17 10.5494 17 11.5585V16.5C17 17.4428 17 17.9142 16.7071 18.2071C16.4142 18.5 15.9428 18.5 15 18.5H5C4.05719 18.5 3.58579 18.5 3.29289 18.2071C3 17.9142 3 17.4428 3 16.5V11.5585Z" fill="#969EA7"/>
<path d="M1 9.88661C1 10.1535 1 10.2869 1.0841 10.3281C1.16819 10.3692 1.27352 10.2873 1.48418 10.1234L8.77212 4.45502C9.36197 3.99625 9.65689 3.76686 10 3.76686C10.3431 3.76686 10.638 3.99625 11.2279 4.45502L18.5158 10.1234C18.7265 10.2873 18.8318 10.3692 18.9159 10.3281C19 10.2869 19 10.1535 19 9.88661V9.47817C19 8.99782 19 8.75764 18.8983 8.54973C18.7966 8.34182 18.607 8.19437 18.2279 7.89946L11.2279 2.45502C10.638 1.99625 10.3431 1.76686 10 1.76686C9.65689 1.76686 9.36197 1.99625 8.77212 2.45502L1.77212 7.89946C1.39295 8.19437 1.20337 8.34182 1.10168 8.54973C1 8.75764 1 8.99782 1 9.47817V9.88661Z" fill="#969EA7"/>
<path d="M10.5 12.5H9.5C8.39543 12.5 7.5 13.3954 7.5 14.5V18.35C7.5 18.4328 7.56716 18.5 7.65 18.5H12.35C12.4328 18.5 12.5 18.4328 12.5 18.35V14.5C12.5 13.3954 11.6046 12.5 10.5 12.5Z" fill="#FEF9F6"/>
<path d="M3.02344 10.8981C3.20222 10.5845 4.32933 9.29954 7.4082 6.66838L10.3691 5.40906L15.692 9.00645L16.9991 12.374L16.9466 8.51305L16.8396 8.43641L10.1183 3.40967L3.02344 8.40567V10.8981Z" fill="#969EA7"/>
</svg>
